<?xml version="1.0" encoding="UTF-8" standalone="no"?>
<svg width="169px" height="179px" viewBox="0 0 169 179" version="1.1" xmlns="http://www.w3.org/2000/svg" xmlns:xlink="http://www.w3.org/1999/xlink">
    <!-- Generator: Sketch 42 (36781) - http://www.bohemiancoding.com/sketch -->
    <title>logo</title>
    <desc>Created with Sketch.</desc>
    <defs>
        <polygon id="path-1" points="0 17.8757972 0 0.952733803 15.3431821 0.952733803 15.3431821 17.8757972 2.27054994e-16 17.8757972"></polygon>
    </defs>
    <g id="Boostrap-3-Grid" stroke="none" stroke-width="1" fill="none" fill-rule="evenodd">
        <g id="[LG]-Large-Desktop-(1200px-or-more)-(LG-or-bigger)" transform="translate(-150.000000, -25.000000)">
            <g id="header" transform="translate(-15.000000, 0.000000)">
                <g id="logo" transform="translate(165.000000, 25.000000)">
                    <path d="M167.713204,131.872199 C160.799338,132.027249 153.905651,131.981868 147.042234,131.56084 C143.121181,131.539411 139.197607,131.44865 135.304301,131.15872 C134.58542,126.053439 133.596644,120.979671 132.330405,115.972713 C131.648099,116.574002 130.81445,116.88158 129.96945,116.929481 C131.122181,121.544404 132.049159,126.219833 132.732726,130.93434 C130.685808,130.730129 128.647719,130.467932 126.626025,130.111192 C119.887465,128.975425 113.225838,127.358122 106.788704,125.104235 C105.598137,124.680685 104.422704,124.218058 103.247271,123.755432 C101.992383,123.261291 100.752629,122.735636 99.5191813,122.193594 C99.5116142,121.985601 99.4901739,121.780129 99.4498157,121.574657 C99.3854948,121.246911 99.2757709,120.929249 99.12695,120.624192 C98.9705619,120.304009 98.7851664,119.993911 98.5341888,119.715326 C98.4030246,119.570361 98.2554649,119.450608 98.1091664,119.329594 C97.6652261,119.403967 97.216241,119.466995 96.7533828,119.506073 C96.2375545,119.548932 95.7103754,119.571622 95.1718455,119.571622 C94.7430396,119.571622 94.3281067,119.546411 93.9144351,119.518678 C93.6041813,119.498509 93.3002336,119.464474 92.9988082,119.427918 C89.623853,119.020756 86.7470694,117.658087 84.4403455,115.328565 C83.461659,114.341544 82.6595396,113.227206 82.0075022,112.009502 C75.0583231,106.667235 69.0916142,100.066925 64.7278828,92.5148894 C64.2700694,92.7758261 63.8311739,93.0720585 63.4137187,93.4073683 C63.3809276,93.4325796 63.3468754,93.4540092 63.3153455,93.480481 C63.0921142,93.6632627 62.8852784,93.8498261 62.6910545,94.0414317 C62.8726664,94.3578331 63.0656291,94.6679317 63.2522858,94.9805514 C63.6243381,95.608312 64.0001739,96.2335514 64.4163679,96.8335796 C66.3106813,99.7984246 68.5076813,102.560319 70.858547,105.167164 C71.3819425,105.760889 71.924256,106.335706 72.4741366,106.901699 L74.4125918,106.901699 L74.4125918,108.811453 C75.7330619,110.055629 77.0989351,111.250643 78.4812037,112.421706 C81.206644,114.630213 84.0556813,116.68115 87.0333604,118.526615 C88.6073306,119.509854 90.2166142,120.431326 91.8498604,121.306157 C91.8006739,121.488939 91.7741888,121.674242 91.7502261,121.860805 C91.651853,122.671347 91.7968903,123.50584 92.2093007,124.24327 C92.237047,124.292432 92.2673157,124.339073 92.2963231,124.386974 C92.4173978,124.582361 92.5510843,124.773967 92.7099948,124.951706 C93.1072709,125.392904 93.5852634,125.711826 94.0985694,125.928643 C95.454353,126.500939 97.0749873,126.292946 98.2415918,125.244157 C98.4433828,125.062636 98.6212112,124.864727 98.7763381,124.655474 C101.137293,125.682833 103.533562,126.623213 105.953793,127.484178 C112.544793,129.791009 119.34389,131.441087 126.209831,132.597023 C128.487547,132.999143 130.774092,133.285291 133.065681,133.500847 C133.164054,134.274833 133.280084,135.046298 133.365846,135.822805 C134.154092,142.937425 134.601816,150.112551 134.668659,157.266249 C134.893151,160.841206 134.997831,164.423727 134.896935,168.003727 C134.84901,169.793727 134.743069,171.583727 134.531189,173.361122 C134.364711,175.149861 134.031756,176.910868 133.576465,178.661791 C134.989002,175.32508 135.699054,171.708523 136.209838,168.117178 C136.715577,164.513227 137.01448,160.881544 137.191047,157.249861 C137.121681,149.985235 136.670174,142.753382 135.873099,135.539178 C135.804995,134.929065 135.711666,134.320213 135.635995,133.711361 C139.439756,133.97608 143.248562,134.060537 147.039711,134.081967 C153.976278,133.653375 160.888883,133.045784 167.713204,131.872199" id="Fill-1" fill="#2C2E83"></path>
                    <path d="M126.672815,102.222992 C127.140718,102.222992 127.53421,102.101978 127.889867,101.858689 C127.411875,100.601908 126.928837,99.3476472 126.407964,98.1059923 L125.155599,98.1059923 L125.155599,101.779274 C125.213613,101.92676 125.270367,102.075506 125.327121,102.222992 L126.672815,102.222992 Z" id="Fill-3" fill="#2C2E83"></path>
                    <path d="M90.4658261,59.7519648 C91.2326321,60.1944225 92.0423187,60.5700704 92.7763336,61.0667324 L94.9682888,62.5718451 L97.160244,64.0769577 C97.894259,64.5736197 98.6345799,65.0627183 99.2904007,65.6627465 L103.35649,69.0902183 C104.060237,69.6335211 104.651737,70.2965775 105.274766,70.9281197 L107.131244,72.832831 L107.756796,73.4731972 L108.740528,74.4816479 C108.465587,74.9833521 108.297849,75.5291761 108.258751,76.0888662 C108.189386,77.108662 108.51099,78.153669 109.248789,78.9730352 C110.015595,79.8251761 111.069953,80.2487254 112.131878,80.2575493 C112.530416,80.2600704 112.927692,80.2058662 113.313617,80.0873732 C113.541893,80.3760423 113.775214,80.659669 113.997184,80.9533803 L114.545804,81.7790493 L116.948378,85.3893028 C117.489431,86.1418592 117.966162,86.933493 118.421453,87.738993 L121.32346,87.779331 C120.628543,86.4998592 119.92858,85.224169 119.077274,84.0379789 L116.037796,79.4709577 C115.815826,79.178507 115.583766,78.8948803 115.358013,78.6074718 C115.583766,78.2872887 115.74646,77.9381127 115.865013,77.576331 C116.14752,76.7191479 116.132386,75.7875915 115.799431,74.9367113 C115.632953,74.5081197 115.398371,74.0996972 115.072983,73.7379155 C114.97461,73.6269859 114.859841,73.5412676 114.751378,73.4442042 C114.027453,72.8013169 113.124438,72.4634859 112.205028,72.4534014 C111.658931,72.4470986 111.115356,72.5592887 110.603311,72.7824085 L108.953669,71.0894718 L107.035393,69.122993 C106.390923,68.4712817 105.777983,67.7867958 105.051535,67.2233239 L100.846714,63.6798803 C100.168192,63.0609437 99.4039082,62.5529366 98.6459306,62.0386268 L96.3783037,60.4830915 L94.1106769,58.9275563 C93.3514381,58.414507 92.5177888,58.024993 91.7244978,57.5674085 L86.9016918,54.9315704 L81.8531321,52.764662 C81.8014231,52.7432324 81.7497142,52.7192817 81.6980052,52.6978521 C81.6147664,53.5361268 81.2591097,54.3428873 80.6461694,54.9920775 C82.3689604,55.7131197 84.0703112,56.4908873 85.798147,57.1993239 L90.4658261,59.7519648 Z" id="Fill-5" fill="#2C2E83"></path>
                    <path d="M60.4803075,48.7437169 L63.122509,49.2693718 C64.0028224,49.4357662 64.8553896,49.7458648 65.7218299,49.9765479 L70.883897,51.440062 C71.9130313,51.7564634 72.9169418,52.1459775 73.919591,52.5367521 C73.8754493,51.7526817 74.0671507,50.9686113 74.4871284,50.2803437 C73.4605164,50.0017592 72.4326433,49.7332592 71.390897,49.5265268 L65.9992925,48.6189211 C65.0988,48.4916042 64.2134418,48.2861324 63.3053821,48.2243648 L60.5887701,48.0163718 L55.8605537,47.6936676 C55.8845164,47.2965901 55.9034343,46.8995127 55.9324418,46.5011746 C55.842897,46.8932099 55.7672254,47.2890268 55.6839866,47.6823225 L55.1744642,47.6470268 L55.6701134,47.7491324 C54.3319866,54.1061535 53.7518373,60.6686465 54.0545239,67.2601324 C54.6107104,72.2078437 55.6259716,77.1227803 57.1936358,81.861238 C57.9251284,81.422562 58.6881507,81.0418718 59.4663075,80.6914352 C58.0272851,76.2504704 57.0801284,71.6481535 56.5819567,66.9991958 C55.6120985,60.7064634 55.4607552,54.2549 55.8542478,47.7869493 L60.4803075,48.7437169 Z" id="Fill-7" fill="#2C2E83"></path>
                    <path d="M108.25913,76.0888662 C108.296966,75.5291761 108.464704,74.9833521 108.740906,74.4816479 L107.757175,73.4731972 C107.557906,73.4530282 107.359899,73.4252958 107.159369,73.410169 C103.6646,72.9941831 100.135779,72.9412394 96.6271373,73.1063732 C93.1109284,73.2286479 89.6300328,73.768169 86.1819284,74.3984507 C82.7451746,75.1043662 79.3513015,76.0069296 76.0356224,77.1376549 C74.6987567,77.5901972 73.3795478,78.0855986 72.0691672,78.6049507 L79.2592343,78.7360493 C88.6261224,75.8480986 98.5857716,74.8320845 108.25913,76.0888662" id="Fill-9" fill="#1D70B7"></path>
                    <path d="M48.3696918,91.9950331 C45.8397366,93.8770542 43.391759,95.8624415 41.0055799,97.9158993 C41.5378037,98.5928218 41.9918336,99.3088218 42.3676694,100.06516 C43.983259,98.6671951 45.6392067,97.3183923 47.317856,95.999843 C47.5234306,94.608181 47.8740425,93.2719838 48.3696918,91.9950331" id="Fill-11" fill="#1D70B7"></path>
                    <path d="M14.5599806,131.039219 C17.6574731,127.083571 20.8344209,123.208599 24.1324433,119.449599 L21.8900403,119.449599 C19.300809,123.226247 16.8162567,127.065923 14.5599806,131.039219" id="Fill-13" fill="#1D70B7"></path>
                    <path d="M136.611024,84.1497908 C130.721248,80.3378472 124.313121,77.2469458 117.512763,75.3989599 C116.947748,75.222481 116.375166,75.0749951 115.800061,74.9363331 C116.131755,75.7872134 116.14689,76.7187697 115.865643,77.5759528 C116.188509,77.6616711 116.513897,77.7373049 116.835501,77.8280655 C123.364703,79.6092415 129.543293,82.5589599 135.209837,86.2700585 C138.674337,88.3159528 141.978666,90.6580796 145.143001,93.2132415 L145.672703,92.1480655 C142.871591,89.2714599 139.863643,86.5751148 136.611024,84.1497908" id="Fill-15" fill="#1D70B7"></path>
                    <path d="M139.227497,106.461511 L140.173393,107.285919 L140.173393,108.066208 L143.461325,105.200947 C143.574833,105.09632 143.693385,104.997996 143.808154,104.895891 L143.808154,103.284891 C143.400788,103.564736 142.987116,103.838278 142.587318,104.125687 L139.227497,106.461511 Z" id="Fill-17" fill="#1D70B7"></path>
                    <path d="M114.185228,118.779106 L111.744818,119.487542 C110.894773,119.739655 110.047251,120.001852 109.166937,120.127908 L103.938027,121.097282 C103.071587,121.297711 102.182445,121.334268 101.299609,121.414944 L99.4494373,121.573775 C99.4910567,121.779246 99.5112358,121.985979 99.518803,122.193972 C100.752251,122.736014 101.992004,123.261669 103.246893,123.754549 C103.602549,123.712951 103.956945,123.671352 104.307557,123.591937 L109.714296,122.588528 C110.623616,122.456169 111.501407,122.187669 112.38046,121.926732 L115.0214,121.16157 L117.66234,120.393887 C118.540131,120.132951 119.371258,119.735873 120.227609,119.413169 L120.763616,119.196352 L114.185228,119.196352 L114.185228,118.779106 Z" id="Fill-19" fill="#1D70B7"></path>
                    <g id="Group-23" transform="translate(0.000000, 74.035408)">
                        <mask id="mask-2" fill="white">
                            <use xlink:href="#path-1"></use>
                        </mask>
                        <g id="Clip-22"></g>
                        <path d="M15.3431821,14.9739803 C12.6177418,12.9961563 9.95157761,10.9363958 7.40901045,8.73167042 C6.05448806,7.55934648 4.73780149,6.34290282 3.49552537,5.05208592 C2.21793582,3.78900141 1.06646567,2.41498732 -0.000504477612,0.952733803 C1.68697313,4.16086761 4.03405522,7.00217746 6.4896,9.67457183 C8.95649552,12.3507479 11.5772567,14.8832197 14.2762119,17.3224099 C14.5095328,17.5102338 14.7478985,17.6892338 14.9824806,17.8757972 C14.9875254,16.877431 15.114906,15.9118394 15.3431821,14.9739803" id="Fill-21" fill="#1D70B7" mask="url(#mask-2)"></path>
                    </g>
                    <path d="M91.7508567,121.861435 C90.504797,121.853872 89.2574761,121.84883 88.0126776,121.802189 L82.7093567,121.270231 C80.9335955,121.159301 79.1918866,120.773569 77.4438716,120.448344 L74.8218493,119.955463 C74.0361254,119.807977 73.2491403,119.666794 72.4785507,119.449977 L69.8489612,119.449977 C69.1124239,119.449977 68.3922821,119.417203 67.6809687,119.36552 C66.8410134,119.303752 66.0174537,119.21047 65.2140731,119.076851 C64.2593493,118.91802 63.3412,118.688597 62.4381851,118.427661 C61.6284985,118.193196 60.8427746,117.915872 60.0759687,117.59947 C57.7515881,116.641442 55.6138642,115.330456 53.7031552,113.627435 C53.2983119,113.266914 52.9313045,112.888745 52.564297,112.511837 C49.5172522,111.149168 46.5244388,109.661703 43.5820731,108.075914 C43.4622597,108.955787 43.262991,109.800365 42.983006,110.608386 C48.4603716,113.527851 54.1281776,116.095618 59.9662448,118.223449 C59.8565209,119.286104 60.1655134,120.386576 60.936103,121.243759 C61.6512,122.037914 62.6172746,122.467766 63.6047896,122.529534 C64.3665507,122.577435 65.1396627,122.405999 65.8232299,122.0064 C66.0489836,121.875301 66.265909,121.717731 66.4677,121.53621 C66.7716478,121.262668 67.0062299,120.945006 67.2042373,120.610956 C68.6697448,121.042069 70.1390358,121.461837 71.6234612,121.834963 C72.4962075,122.104724 73.4004836,122.25221 74.2971925,122.422386 L76.991103,122.929132 C78.7883045,123.261921 80.5754164,123.655217 82.405409,123.772449 L87.8663791,124.318273 C89.2612597,124.372477 90.6599239,124.374999 92.0585881,124.385083 C92.1090358,124.337182 92.1594836,124.290541 92.2099313,124.242639 C91.7962597,123.50647 91.6524836,122.671977 91.7508567,121.861435" id="Fill-24" fill="#1D70B7"></path>
                    <path d="M131.745716,114.019218 L129.799693,112.175014 L128.259775,110.715282 L127.414775,109.914824 C127.318925,109.986676 127.215507,110.045923 127.124701,110.127859 C125.960619,111.174127 125.58226,112.756134 126.003499,114.161662 C125.719731,114.307887 125.438484,114.456634 125.155977,114.60412 L125.155977,117.424 L125.324977,117.35593 L127.490447,116.232768 C128.225723,116.750859 129.100992,116.979021 129.968693,116.929859 C130.813693,116.881958 131.647343,116.57438 132.33091,115.973092 C132.340999,115.964268 132.35235,115.959225 132.363701,115.949141 C132.613417,115.724761 132.815208,115.468866 132.993037,115.201627 L131.880663,114.147796 L131.745716,114.019218 Z" id="Fill-26" fill="#1D70B7"></path>
                    <path d="M113.314122,80.0871211 C112.928196,80.2056141 112.529659,80.2610789 112.131122,80.2572972 C111.796905,85.9285718 110.818219,91.5141282 109.225331,96.7668958 C109.77395,98.2228465 110.12204,99.8174592 110.272122,101.544431 C111.529532,98.192593 112.55236,94.6831845 113.286375,91.0691493 C113.906883,88.0248887 114.307943,84.9125577 114.546308,81.7787972 L113.996428,80.9531282 C113.774457,80.6606775 113.541137,80.3757901 113.314122,80.0871211" id="Fill-28" fill="#36A9E0"></path>
                    <path d="M98.5346933,119.71583 C98.7844097,119.994415 98.9710664,120.303253 99.1274545,120.623436 C99.6609396,119.990633 100.180551,119.325056 100.698902,118.654436 C99.8740813,118.949408 99.0126858,119.17883 98.1096709,119.328837 C98.2559694,119.451112 98.4035291,119.570865 98.5346933,119.71583" id="Fill-30" fill="#36A9E0"></path>
                    <path d="M92.2964493,124.386722 C92.2674418,124.33882 92.2371731,124.29218 92.2094269,124.243018 C92.1589791,124.290919 92.1085313,124.33756 92.0580836,124.384201 C91.7289119,124.691778 91.3997403,125.013222 91.0705687,125.308194 C89.7147851,126.651954 88.1635164,127.644018 86.8846657,128.823905 C85.5276209,129.90925 84.2929119,131.024849 83.0140612,131.914806 C81.7642179,132.847623 80.5837403,133.711109 79.4436209,134.442236 C78.319897,135.199835 77.2869791,135.901968 76.3120761,136.459137 C75.3447403,137.040257 74.4808224,137.558349 73.7291507,138.00963 C72.9547776,138.43318 72.2976955,138.79244 71.7642104,139.08363 C71.572509,139.188257 71.4173821,139.273975 71.2584716,139.360954 C70.8826358,138.351243 70.0754716,136.181813 68.9038224,133.031665 C68.4359194,131.937496 68.1420612,130.661806 67.7422627,129.30418 C67.3500313,127.950335 66.9262701,126.48682 66.4735015,124.922461 C66.2162179,124.154778 66.0812701,123.317764 65.9135313,122.468144 C65.8845239,122.318137 65.852994,122.158046 65.8227254,122.006778 C65.1404194,122.406377 64.3660463,122.576553 63.6055463,122.529912 C63.6597776,122.706391 63.7177925,122.892954 63.7720239,123.068173 C64.0356134,123.914011 64.2626284,124.742201 64.6119791,125.511144 C65.2476209,127.055335 65.8429045,128.502461 66.3940463,129.839919 C66.964106,131.16225 67.4156134,132.405165 68.0083746,133.432525 C69.5873896,136.408715 70.6745388,138.45587 71.1777552,139.405074 C70.4992328,139.77568 70.1284418,139.97863 70.1284418,139.97863 C70.1284418,139.97863 70.5269791,139.828623 71.2572104,139.555081 C71.4173821,139.856356 71.5018821,140.015187 71.5018821,140.015187 C71.5018821,140.015187 71.4400836,139.847532 71.3215313,139.53113 C71.4943149,139.466842 71.6658373,139.402553 71.8739343,139.324398 C72.443994,139.111363 73.1452179,138.847905 73.9713,138.539067 C74.7898149,138.21132 75.7155313,137.786511 76.7635836,137.328926 C77.8229866,136.887729 78.9479716,136.314173 80.178897,135.691454 C81.4274791,135.098989 82.7151582,134.343912 84.0974269,133.538412 C85.5061806,132.77325 86.8909716,131.779926 88.4157552,130.814335 C89.1535537,130.298764 89.8610836,129.702518 90.5824866,129.091144 C91.3127179,128.491116 92.0404269,127.854532 92.7618299,127.17887 C93.2070313,126.780532 93.653494,126.349419 94.0986955,125.928391 C93.5853896,125.711574 93.107397,125.392651 92.7101209,124.951454 C92.5512104,124.773715 92.4175239,124.58337 92.2964493,124.386722" id="Fill-32" fill="#36A9E0"></path>
                    <path d="M139.287782,4.54710423 C138.664752,4.68702676 137.914342,4.9164493 137.01511,5.15847746 C136.132275,5.43454085 135.122058,5.78245634 134.005901,6.20852676 C131.779894,7.07327324 129.133909,8.2657662 126.158752,9.7595338 C124.679372,10.5171324 123.111707,11.3402803 121.480984,12.2478859 C119.841431,13.1403648 118.271245,14.3189915 116.561066,15.4308085 C113.178543,17.7174704 109.581618,20.2789352 105.867401,23.1240268 C104.878625,23.874062 103.893633,24.6480479 102.90864,25.4472451 C102.386506,25.0993296 101.801312,24.8913366 101.195939,24.8220056 C100.4367,23.4416887 99.6762,22.0966676 98.9320955,20.8159352 C97.9143119,19.1494704 97.0529164,17.4817451 96.0086478,16.0358789 C94.9782522,14.5824493 93.9856925,13.2172592 93.0372746,11.9453507 C91.1442224,9.4015338 89.4504388,7.22075915 88.0278119,5.44966761 C86.6140134,3.67101268 85.4385806,2.32473099 84.6465507,1.40199859 C83.8456925,0.486829577 83.4181478,0.000252112676 83.4181478,0.000252112676 C83.4181478,0.000252112676 83.7738045,0.541033803 84.4422373,1.55578732 C85.0930134,2.57936479 86.0464761,4.08195634 87.2597448,5.99423099 C88.4629239,7.91028732 89.8830284,10.2599775 91.4569985,12.9840549 C92.2439836,14.3442028 93.0637597,15.8026746 93.9087597,17.3481254 C94.7373642,18.9011394 95.8169463,20.4062521 96.7552746,22.0903648 C97.3770433,23.1593225 98.0089015,24.2736606 98.6407597,25.4094282 C98.4641925,25.5228789 98.2888866,25.6401113 98.1274537,25.7850761 C96.8334687,26.9485761 96.5143866,28.7726113 97.1853418,30.2802451 C96.3100731,31.025238 95.4348045,31.7853577 94.5872821,32.5895972 C92.7446776,34.3619493 90.8705433,36.1645549 88.9737075,37.9898507 C87.1966851,39.9349 85.3982224,41.9039 83.5858866,43.8892873 C82.2137075,45.4876817 80.9134164,47.1680127 79.5954687,48.8420408 C78.1917597,48.1235197 76.4361776,48.2886535 75.1926403,49.4055127 C74.9038269,49.6651887 74.6805955,49.9664634 74.4876328,50.2803437 C74.066394,50.9686113 73.8759537,51.7526817 73.9188343,52.5367521 C73.9680209,53.3951958 74.2795358,54.2448155 74.9000433,54.9343437 C74.963103,55.0049352 75.0387746,55.0566183 75.1056179,55.120907 L73.8532522,56.9764563 L73.2806701,57.8273366 L72.7774537,58.7235972 L71.7697597,60.5123366 L69.7594164,64.0872944 C68.5133567,66.5138789 67.4703493,69.0350056 66.3302299,71.4804986 C65.3767672,74.0066676 64.5380731,76.5567873 63.6552373,79.0527028 C63.6363194,79.1321183 63.6161403,79.2090127 63.5972224,79.2871676 C64.5103269,79.0690901 65.4524388,78.9089986 66.4147299,78.7917662 C67.150006,76.6841042 67.8676254,74.551231 68.6672224,72.4284423 C69.7783343,70.0548014 70.7885507,67.6067873 71.999297,65.2457521 L73.9566701,61.7678577 L74.9366179,60.0244986 L75.4272224,59.1534493 L75.9871925,58.322738 L77.419909,56.1974282 C78.4805731,56.3045761 79.5778119,55.9944775 80.4316403,55.2267944 C80.5123567,55.1549423 80.572894,55.0692239 80.6460433,54.9923296 C81.2602448,54.3418789 81.6159015,53.5363789 81.6978791,52.6981042 C81.7647224,52.0148789 81.6474313,51.3240901 81.3535731,50.6849845 C82.7257522,48.9479282 84.0701851,47.1970056 85.4965955,45.5343225 C87.2736179,43.5880127 89.0367672,41.6580901 90.7784761,39.7508577 C92.6425209,37.9583366 94.4838642,36.1872451 96.2949388,34.4451465 C97.1437224,33.6396465 98.0215134,32.8782662 98.9005657,32.1320127 C99.9120433,32.6740549 101.110178,32.745907 102.177148,32.3274 C102.290655,32.5719493 102.410469,32.8064141 102.521454,33.0534845 C104.256857,37.0784634 105.99226,41.4097592 107.414887,45.9906465 C110.00664,54.2271676 111.856812,63.2792732 112.204901,72.4536535 C113.124312,72.463738 114.027327,72.8003085 114.751252,73.4444563 C114.504058,63.6246676 112.568125,53.9649704 109.819984,45.2305268 C108.363304,40.5437521 106.607722,36.1569915 104.821872,32.0223437 C104.603685,31.5357662 104.374148,31.0744 104.150916,30.5991676 C104.691969,29.6310549 104.807999,28.4826817 104.456125,27.4401958 C105.439857,26.6409986 106.42611,25.8644915 107.403536,25.1232803 C111.068566,22.3160056 114.633961,19.777231 117.972342,17.5208225 C119.620722,16.3573225 121.313245,15.4232451 122.800193,14.3429423 C124.29723,13.2765056 125.740036,12.3008296 127.105909,11.3957451 C129.850267,9.61204789 132.309596,8.15483662 134.394349,7.06570986 C135.439879,6.53123099 136.387036,6.07868873 137.214379,5.68539296 C138.055596,5.3362169 138.76817,5.00973099 139.360931,4.79291408 C140.56411,4.39079437 141.204797,4.17649859 141.204797,4.17649859 C141.204797,4.17649859 140.537625,4.30633662 139.287782,4.54710423" id="Fill-34" fill="#36A9E0"></path>
                    <path d="M62.69055,94.0419359 C61.2792739,95.4310768 60.5894007,97.0609852 60.5894007,99.0072951 C60.5894007,101.09857 61.4268336,102.835626 63.1281843,104.318049 C63.0764754,103.368844 63.0235052,102.413337 62.9692739,101.441443 C63.061341,99.3400838 63.1559306,97.1794782 63.2517813,94.9810556 C63.0663858,94.6671754 62.8721619,94.3583373 62.69055,94.0419359" id="Fill-36" fill="#36A9E0"></path>
                    <path d="M41.3865866,109.769103 C40.8177881,111.547758 39.8126164,113.124723 38.3584597,114.493694 C36.1059672,116.607659 33.4486313,117.662751 30.3877134,117.662751 L25.7326463,117.662751 L23.1131463,117.662751 L16.5650269,117.662751 L16.5650269,108.687539 L29.5729821,108.687539 C29.839094,108.687539 30.0875493,108.635856 30.3271761,108.55392 C30.6664373,108.436687 30.9817358,108.246342 31.2680269,107.963976 C31.6312507,107.605976 31.8582657,107.196293 31.951594,106.737448 C31.9843851,106.577356 32.0020418,106.412223 32.0020418,106.240786 C32.0020418,104.443223 30.7534597,103.544441 28.2562955,103.544441 C24.9494448,103.544441 22.207609,102.375899 20.0307881,100.033772 C18.1982731,98.0609901 17.1464373,95.841138 16.8576239,93.3779972 C16.8033925,92.9178915 16.7668179,92.4514831 16.7668179,91.9737296 C16.7668179,91.3762225 16.8273552,90.7963634 16.9194224,90.2253282 C17.2965194,87.8970676 18.4303328,85.7818423 20.348609,83.8884761 C22.7360493,81.529962 25.3933851,80.3513352 28.3193552,80.3513352 L45.3076388,80.3513352 L40.8102209,89.3252859 L29.2324597,89.3252859 C28.5930343,89.3252859 28.0103627,89.5723563 27.4894896,90.0639761 C26.966094,90.5568563 26.7050269,91.1417577 26.7050269,91.8199408 C26.7050269,93.6540606 27.9876612,94.5692296 30.5516687,94.5692296 C33.5873627,94.5692296 36.2043403,95.6091944 38.3975567,97.6891239 C38.8705045,98.1315817 39.2829149,98.6055535 39.6612731,99.0959127 C40.193497,99.7854408 40.6386985,100.520349 40.9830045,101.303159 C41.6161239,102.742723 41.9402507,104.337335 41.9402507,106.092039 C41.9402507,106.455082 41.9200716,106.808039 41.8923254,107.158476 C41.8191761,108.072385 41.6501761,108.943434 41.3865866,109.769103 M41.005706,97.9160254 C40.5882507,97.3865887 40.1392657,96.8722789 39.6272209,96.3932648 C37.1010493,93.9969338 34.0476985,92.7830113 30.5516687,92.7830113 C28.4934,92.7830113 28.4934,92.2031521 28.4934,91.8212014 C28.4934,91.6901028 28.5097955,91.5577437 28.714109,91.3636169 C28.9827433,91.1115042 29.1517433,91.1115042 29.2337209,91.1115042 L41.9150269,91.1115042 L48.2020791,78.5638563 L28.3193552,78.5638563 C24.9204373,78.5638563 21.8166388,79.9277859 19.0937209,82.6165676 C17.1565269,84.5288423 15.9117284,86.6730606 15.3429299,89.0088845 C15.1146537,89.9467437 14.9872731,90.9123352 14.9822284,91.9107014 C14.9822284,91.932131 14.979706,91.9523 14.979706,91.9737296 C14.979706,95.4566662 16.2383776,98.5790817 18.7216687,101.250215 C21.2390119,103.959166 24.4474896,105.330659 28.2575567,105.330659 C30.2149299,105.330659 30.2149299,105.879004 30.2149299,106.240786 C30.2149299,106.400877 30.1821388,106.526934 30.0131388,106.693328 C29.8176537,106.886194 29.6877507,106.902582 29.5729821,106.902582 L14.7779149,106.902582 L14.7779149,119.45023 L21.8897881,119.45023 L24.132191,119.45023 L30.3889746,119.45023 C33.9039224,119.45023 36.9976313,118.22118 39.5843403,115.794596 C41.1822731,114.290744 42.3085194,112.552427 42.9832582,110.608638 C43.2632433,109.800617 43.4625119,108.954779 43.5810642,108.074906 C43.6693478,107.430758 43.7286239,106.774004 43.7286239,106.092039 C43.7286239,103.872187 43.2619821,101.861589 42.3677955,100.065286 C41.9919597,99.3089479 41.5379299,98.5929479 41.005706,97.9160254" id="Fill-38" fill="#FEFEFE"></path>
                    <path d="M60.8734216,93.3825352 C59.4987201,94.9821901 58.8012799,96.8541268 58.8012799,99.007169 C58.8012799,100.982472 59.4079142,102.727092 60.6010037,104.251113 C61.0537724,104.828451 61.5834739,105.376796 62.2065037,105.889845 C62.5445037,106.167169 62.8976381,106.416761 63.2570784,106.653746 C65.3203918,108.00507 67.7494515,108.688296 70.5556082,108.688296 L72.6239664,108.688296 L72.6239664,117.663507 L69.8493396,117.663507 C69.085056,117.663507 68.3384291,117.631993 67.6056754,117.572746 C66.6206828,117.493331 65.6747873,117.342063 64.7465485,117.156761 C64.6317799,117.13281 64.5170112,117.108859 64.4022425,117.083648 C63.5900336,116.90843 62.7954813,116.697915 62.0274142,116.438239 C61.6591455,116.313444 61.3009664,116.173521 60.9427873,116.029817 C60.3563321,115.795352 59.78375,115.535676 59.2263022,115.249528 C57.677556,114.455373 56.2259216,113.482218 54.8915784,112.293507 C50.872153,108.713507 48.8643321,104.285148 48.8643321,99.007169 C48.8643321,97.3608732 49.0863022,95.805338 49.4835784,94.3203944 C49.9136455,92.7207394 50.566944,91.2105845 51.4586082,89.7987535 C52.3729739,88.3516268 53.5156157,86.9952606 54.9168022,85.7460423 C55.8273843,84.9342394 56.7921978,84.2283239 57.7986306,83.6005634 C58.5212948,83.1492817 59.2653993,82.7395986 60.0385112,82.3815986 C61.0209813,81.9277958 62.0488545,81.5571901 63.1133022,81.2559155 C64.0011828,81.0050634 64.9130261,80.8008521 65.8563993,80.6558873 C66.4882575,80.5588239 67.128944,80.480669 67.7847649,80.431507 C68.4607649,80.3810845 69.1468545,80.350831 69.8493396,80.350831 L74.3127052,80.4327676 L77.0482351,80.4819296 L72.6239664,89.3247817 L70.5556082,89.3247817 C68.0029515,89.3247817 65.7706381,89.8743873 63.8498396,90.960993 C63.8107425,90.9836831 63.7729067,91.0088944 63.7338097,91.0315845 C63.1927575,91.3467254 62.6718843,91.697162 62.1812799,92.0992817 C62.0375037,92.2165141 61.9126455,92.3413099 61.7776978,92.4623239 C61.4510485,92.7585563 61.1471007,93.0648732 60.8734216,93.3825352 M63.3150933,93.4808592 C63.3466231,93.4543873 63.3806754,93.4329577 63.4134664,93.4064859 C63.8309216,93.0724366 64.2698172,92.7749437 64.7276306,92.5152676 C66.381056,91.5761479 68.3005933,91.1122606 70.5556082,91.1122606 L73.7287724,91.1122606 L79.9136679,78.7486549 L79.2591082,78.7360493 L72.069041,78.6049507 L69.8493396,78.5646127 C68.6688619,78.5646127 67.5312649,78.6553732 66.413847,78.7915141 C65.451556,78.9087465 64.5107052,79.068838 63.5976007,79.2869155 C62.1573172,79.6310493 60.7788321,80.0987183 59.4659291,80.6911831 C58.6877724,81.0428803 57.9260112,81.4223099 57.1932575,81.8609859 C55.9724216,82.5908521 54.8171679,83.4417324 53.7274963,84.4123662 C51.2353769,86.6334789 49.4633993,89.1760352 48.369944,91.9946549 C47.8742948,93.2716056 47.5236828,94.6078028 47.3181082,95.9994648 C47.1743321,96.977662 47.075959,97.9747676 47.075959,99.007169 C47.075959,104.261197 48.9336978,108.790401 52.5646754,112.511585 C52.9316828,112.888493 53.2986903,113.266662 53.7022724,113.627183 C55.6142425,115.330204 57.7507052,116.64119 60.076347,117.599218 C60.8418918,117.91562 61.6288769,118.194204 62.4385634,118.428669 C63.3403172,118.689606 64.2597276,118.917768 65.2144515,119.076599 C66.0178321,119.210218 66.8413918,119.3035 67.6800858,119.365268 C68.3913993,119.416951 69.1128022,119.449725 69.8493396,119.449725 L72.4789291,119.449725 L74.4123396,119.449725 L74.4123396,108.811831 L74.4123396,106.902077 L72.4738843,106.902077 L70.5556082,106.902077 C67.6611679,106.902077 65.3014739,106.119268 63.3415784,104.510789 C63.2659067,104.447761 63.2015858,104.382211 63.1284366,104.317923 C61.4270858,102.8355 60.589653,101.098444 60.589653,99.007169 C60.589653,97.0621197 61.2795261,95.4309507 62.6908022,94.0418099 C62.8850261,93.8502042 63.0931231,93.6623803 63.3150933,93.4808592" id="Fill-40" fill="#FEFEFE"></path>
                    <path d="M98.3513157,107.846239 C97.9187261,108.479042 97.1178679,109.319838 95.1718455,109.319838 C93.7403903,109.319838 92.7541366,108.852169 92.0693082,107.850021 C91.3769127,106.831486 91.0250396,105.376796 91.0250396,103.525028 C91.0250396,101.646789 91.3655619,100.189577 92.0276888,99.2050775 C92.7150396,98.2004085 93.7139052,97.7314789 95.1718455,97.7314789 C96.6045619,97.7314789 97.6046888,98.2117535 98.314741,99.2428944 C99.0285769,100.286641 99.3918007,101.727465 99.3918007,103.525028 C99.3918007,105.396965 99.0437112,106.847873 98.3513157,107.846239 M95.1705843,95.9452606 C93.1186216,95.9452606 91.5787037,96.6952958 90.553353,98.1966268 C89.6768231,99.4975282 89.2391888,101.273662 89.2391888,103.525028 C89.2391888,105.752444 89.6894351,107.528577 90.5911888,108.85469 C91.6165396,110.356021 93.1438455,111.106056 95.1705843,111.106056 C97.2477709,111.106056 98.8003007,110.356021 99.8269127,108.85469 C100.727405,107.553789 101.178913,105.776394 101.178913,103.525028 C101.178913,101.349296 100.714793,99.584507 99.7890769,98.2331831 C98.737241,96.7079014 97.1985843,95.9452606 95.1705843,95.9452606" id="Fill-42" fill="#FEFEFE"></path>
                    <path d="M104.670402,114.070901 C104.167186,114.578908 103.627395,115.020106 103.064902,115.423486 C101.70029,116.401683 100.160372,117.074824 98.4451485,117.441648 C97.414753,117.662246 96.3288649,117.785782 95.1710888,117.785782 C91.3168799,117.785782 88.1626336,116.547908 85.7096112,114.070901 C83.1317306,111.469099 81.8427903,107.953387 81.8427903,103.525028 C81.8427903,99.0979296 83.1317306,95.5822183 85.7096112,92.9804155 C88.1626336,90.5034085 91.3168799,89.2655352 95.1710888,89.2655352 C99.1009694,89.2655352 102.29179,90.5034085 104.746074,92.9804155 C106.535708,94.7880634 107.684656,97.0684225 108.219402,99.7988028 C108.447678,100.961042 108.575059,102.196394 108.575059,103.525028 C108.575059,104.389775 108.510738,105.210401 108.409843,106.005817 C107.998693,109.264373 106.762723,111.959458 104.670402,114.070901 M109.225835,96.7671479 C108.500649,94.8397465 107.431156,93.1531127 106.016096,91.7236338 C103.225074,88.9062746 99.5751784,87.4780563 95.1710888,87.4780563 C90.8388873,87.4780563 87.2280888,88.9075352 84.4395888,91.7236338 C81.5300142,94.6594859 80.0544172,98.6302606 80.0544172,103.525028 C80.0544172,106.774761 80.7190664,109.607246 82.0067455,112.00988 C82.660044,113.226324 83.4621634,114.340662 84.4395888,115.328944 C86.7463127,117.658465 89.6243575,119.021134 92.9980515,119.428296 C93.3007381,119.464852 93.6046858,119.497627 93.9149396,119.519056 C94.3286112,119.546789 94.743544,119.572 95.1710888,119.572 C95.7096187,119.572 96.2367978,119.54931 96.7538873,119.50519 C97.2154843,119.466113 97.6657306,119.403085 98.1096709,119.329972 C99.0126858,119.178704 99.8740813,118.949282 100.698902,118.65431 C102.676454,117.949655 104.433298,116.849183 105.941686,115.328944 C108.875223,112.365359 110.362171,108.394585 110.362171,103.525028 C110.362171,102.845585 110.328119,102.18757 110.272626,101.544683 C110.122544,99.8177113 109.774454,98.2230986 109.225835,96.7671479" id="Fill-44" fill="#FEFEFE"></path>
                    <path d="M127.890246,101.858059 C127.534589,102.102608 127.139835,102.222362 126.673193,102.222362 L125.327499,102.222362 L125.155977,102.222362 L125.155977,101.779904 L125.155977,98.1066225 L126.407081,98.1066225 L126.673193,98.1066225 C127.738902,98.1066225 128.293828,98.3221789 128.446432,98.5062211 C128.477962,98.5452986 128.751641,98.9133831 128.751641,100.18277 C128.751641,100.814313 128.573813,101.263073 128.174014,101.634939 C128.081947,101.720658 127.987357,101.791249 127.890246,101.858059 L127.890246,101.858059 Z M138.385902,117.850827 L133.638768,113.351876 L133.349954,113.078334 L131.435462,111.263123 L130.895671,110.752594 L129.217022,109.160503 L127.11335,107.167552 L123.781275,104.009841 L126.019895,104.009841 L126.673193,104.009841 C127.359283,104.009841 127.978529,103.842186 128.542283,103.53839 C128.841186,103.377038 129.129999,103.187954 129.39485,102.940883 C130.157872,102.228665 130.538753,101.309714 130.538753,100.18277 C130.538753,98.8843901 130.301649,97.946531 129.826178,97.3704535 C129.249813,96.6708408 128.199238,96.3204042 126.673193,96.3204042 L125.617574,96.3204042 L123.367604,96.3204042 L123.367604,97.4687775 L123.367604,115.429285 L123.367604,117.41089 L118.455253,117.41089 L115.971962,117.41089 L115.971962,96.3204042 L119.239716,89.5373127 L119.411238,89.5385732 L122.30694,89.5789113 L126.709768,89.6406789 C130.51479,89.6406789 133.304551,90.3655028 135.082835,91.8164113 C136.984716,93.3669042 137.936917,95.867862 137.936917,99.3192845 C137.936917,100.569763 137.547208,101.695446 136.772835,102.695073 C136.420962,103.146355 135.695775,103.845968 134.594753,104.796432 L137.684678,107.487735 L138.385902,108.097848 L138.385902,109.517242 L138.385902,117.850827 Z M137.28488,104.7687 C137.673328,104.38801 137.969708,104.066566 138.185372,103.790503 C139.205678,102.473214 139.722768,100.968101 139.722768,99.3192845 C139.722768,95.3207775 138.54229,92.3307211 136.212865,90.4335732 C134.089014,88.6977775 130.980171,87.8544606 126.733731,87.8544606 L121.323208,87.7788268 L118.421201,87.7384887 L118.123559,87.734707 L114.18485,95.9132423 L114.18485,118.778601 L114.18485,119.195848 L120.764499,119.195848 L125.155977,119.195848 L125.155977,117.423496 L125.155977,114.603615 L125.155977,107.773883 L127.414775,109.91558 L128.259775,110.714777 L129.799693,112.17577 L131.745716,114.018714 L131.880663,114.147292 L132.993037,115.201123 L140.174275,122.006904 L140.174275,108.066334 L140.174275,107.286045 L139.227119,106.461637 L137.28488,104.7687 Z" id="Fill-46" fill="#FEFEFE"></path>
                    <path d="M154.77865,102.264843 L154.77865,98.1062444 L156.294605,98.1062444 C156.863404,98.1062444 157.33509,98.2991106 157.776508,98.7125754 C158.19018,99.0995683 158.375575,99.5546317 158.375575,100.186174 C158.375575,101.029491 158.065322,101.425308 157.797949,101.674899 C157.367881,102.07828 156.889889,102.264843 156.294605,102.264843 L154.77865,102.264843 Z M163.241262,108.141589 C161.189299,109.867301 158.873747,110.730787 156.294605,110.730787 L154.718113,110.730787 L154.718113,104.051061 L156.294605,104.051061 C157.346441,104.051061 158.25324,103.694322 159.017523,102.980843 C159.780546,102.268625 160.162687,101.337068 160.162687,100.184913 C160.162687,99.0604908 159.77424,98.1352373 158.998605,97.4078923 C158.222971,96.6830683 157.321217,96.3200261 156.294605,96.3200261 L152.991538,96.3200261 L152.991538,117.410512 L145.594635,117.410512 L145.594635,103.24304 L145.594635,101.898019 L145.594635,96.3200261 L146.559449,94.380019 L146.98321,93.5278782 L148.881307,89.70585 L156.332441,89.6403007 C158.911583,89.6403007 161.227135,90.5163923 163.279098,92.2673148 C165.656449,94.2943007 166.845754,96.9339204 166.845754,100.184913 C166.845754,103.463639 165.645098,106.114604 163.241262,108.141589 L163.241262,108.141589 Z M164.439396,90.9084275 C162.062046,88.8814415 159.334083,87.8540824 156.317307,87.8540824 L147.767672,87.9284556 L145.672829,92.1475613 L145.143128,93.2127373 L143.808784,95.9002585 L143.808784,103.284639 L143.808784,104.896899 L143.808784,119.19673 L154.77865,119.19673 L154.77865,112.517005 L156.294605,112.517005 C159.294986,112.517005 162.017904,111.504773 164.393993,109.50678 C167.206456,107.134399 168.632866,103.998118 168.632866,100.186174 C168.632866,96.4032232 167.222851,93.2808077 164.439396,90.9084275 L164.439396,90.9084275 Z" id="Fill-48" fill="#FEFEFE"></path>
                    <path d="M29.2329642,89.3252859 L40.8107254,89.3252859 L45.3081433,80.3513352 L28.3198597,80.3513352 C25.3938896,80.3513352 22.7365537,81.529962 20.3491134,83.8884761 C18.4308373,85.7818423 17.2970239,87.8970676 16.9199269,90.2253282 C16.8265985,90.7963634 16.7673224,91.3762225 16.7673224,91.9737296 C16.7673224,92.4514831 16.803897,92.9178915 16.8581284,93.3779972 C17.1469418,95.841138 18.1987776,98.0609901 20.0312925,100.033772 C22.2081134,102.375899 24.9499493,103.544441 28.2568,103.544441 C30.7539642,103.544441 32.0025463,104.443223 32.0025463,106.240786 C32.0025463,106.412223 31.9848896,106.577356 31.9520985,106.737448 C31.8587701,107.196293 31.6317552,107.605976 31.2685313,107.963976 C30.9822403,108.246342 30.6656806,108.436687 30.3276806,108.55392 C30.0880537,108.635856 29.8383373,108.687539 29.5734866,108.687539 L16.5655313,108.687539 L16.5655313,117.662751 L23.1123896,117.662751 L25.7318896,117.662751 L30.3882179,117.662751 C33.4478746,117.662751 36.1052104,116.607659 38.3589642,114.493694 C39.8131209,113.124723 40.8182925,111.549018 41.387091,109.769103 C41.6506806,108.943434 41.8184194,108.072385 41.8915687,107.158476 C41.9193149,106.808039 41.9407552,106.455082 41.9407552,106.092039 C41.9407552,104.337335 41.6166284,102.742723 40.983509,101.303159 C40.6379418,100.520349 40.1940015,99.7854408 39.6605164,99.0959127 C39.2834194,98.6055535 38.871009,98.1315817 38.3980612,97.6891239 C36.2035836,95.6091944 33.5878672,94.5692296 30.5521731,94.5692296 C27.9869045,94.5692296 26.7055313,93.6540606 26.7055313,91.8199408 C26.7055313,91.1417577 26.9665985,90.5568563 27.4887328,90.0639761 C28.0108672,89.5723563 28.5922776,89.3252859 29.2329642,89.3252859" id="Fill-50" fill="#29235C"></path>
                    <path d="M69.8495918,80.3512092 C69.1471067,80.3512092 68.459756,80.3802021 67.7850172,80.4306246 C67.1279351,80.4797866 66.4872485,80.5592021 65.8566515,80.6562655 C64.9132784,80.8012303 64.0001739,81.0054415 63.1135545,81.2562937 C62.0491067,81.5575683 61.0212336,81.9281739 60.0387634,82.3819768 C59.2656515,82.7387162 58.521547,83.1483993 57.7988828,83.599681 C56.79245,84.2287021 55.8276366,84.9346176 54.9170545,85.7451599 C53.5146067,86.9956387 52.3732261,88.3507444 51.4575993,89.7991317 C50.5659351,91.2109627 49.9126366,92.719857 49.4838306,94.3207725 C49.0865545,95.8044556 48.8633231,97.3612514 48.8633231,99.0075472 C48.8633231,104.284265 50.8724052,108.713885 54.8918306,112.293885 C56.2261739,113.482596 57.6778082,114.454491 59.2265545,115.248646 C59.7840022,115.534794 60.3565843,115.79573 60.9430396,116.030195 C61.2999575,116.173899 61.6593978,116.313822 62.0276664,116.438618 C62.7957336,116.697033 63.5890246,116.908808 64.4024948,117.084026 C64.5172634,117.109237 64.6320321,117.133188 64.7468007,117.155878 C65.6737784,117.342442 66.6209351,117.493709 67.6059276,117.573125 C68.3386813,117.631111 69.0853082,117.663885 69.8495918,117.663885 L72.6242187,117.663885 L72.6242187,108.687413 L70.5558604,108.687413 C67.7497037,108.687413 65.3193828,108.005449 63.2573306,106.654125 C62.8966291,106.417139 62.544756,106.167547 62.206756,105.890223 C61.5824649,105.377174 61.0540246,104.828829 60.601256,104.251491 C59.4069052,102.72747 58.8015321,100.981589 58.8015321,99.0075472 C58.8015321,96.8545049 59.4989724,94.9825683 60.8736739,93.3829134 C61.1460918,93.0652514 61.4500396,92.7589345 61.77795,92.4627021 C61.9128978,92.341688 62.037756,92.2168923 62.1815321,92.0983993 C62.6721366,91.6962796 63.1917485,91.3471035 63.7340619,91.0319627 C63.773159,91.0092725 63.8109948,90.9828007 63.8500918,90.9613711 C65.7696291,89.8747655 68.0032037,89.3251599 70.5558604,89.3251599 L72.6242187,89.3251599 L77.0472261,80.4823077 L74.3129575,80.4331458 L69.8495918,80.3512092 Z" id="Fill-52" fill="#29235C"></path>
                    <path d="M95.1712149,111.106182 C93.1432149,111.106182 91.615909,110.356147 90.5905582,108.854816 C89.6900657,107.528704 89.2385582,105.75257 89.2385582,103.525154 C89.2385582,101.273788 89.6761925,99.4976542 90.5527224,98.1967528 C91.5793343,96.6954218 93.1192522,95.9453866 95.1712149,95.9453866 C97.1992149,95.9453866 98.7378716,96.7080275 99.7897075,98.2333092 C100.715424,99.5846331 101.178282,101.348161 101.178282,103.525154 C101.178282,105.77652 100.728036,107.553915 99.8262821,108.854816 C98.7996701,110.356147 97.2484015,111.106182 95.1712149,111.106182 M104.744939,92.9805415 C102.291916,90.5035345 99.1010955,89.2656613 95.1712149,89.2656613 C91.317006,89.2656613 88.1627597,90.5035345 85.7097373,92.9805415 C83.1318567,95.5823444 81.8416552,99.0980556 81.8416552,103.525154 C81.8416552,107.953513 83.1318567,111.469225 85.7097373,114.071027 C88.1627597,116.548035 91.317006,117.785908 95.1712149,117.785908 C96.328991,117.785908 97.4148791,117.662373 98.4452746,117.441774 C100.160499,117.073689 101.700416,116.401809 103.065028,115.423612 C103.627521,115.020232 104.167312,114.577774 104.670528,114.071027 C106.762849,111.959584 107.998819,109.264499 108.409969,106.005943 C108.509603,105.210527 108.575185,104.389901 108.575185,103.525154 C108.575185,102.19652 108.447804,100.961168 108.219528,99.7989289 C107.684782,97.067288 106.535834,94.7881894 104.744939,92.9805415" id="Fill-54" fill="#29235C"></path>
                    <path d="M134.594375,104.796306 C135.695397,103.845842 136.421845,103.146229 136.772457,102.694947 C137.548091,101.69532 137.936539,100.569637 137.936539,99.3191585 C137.936539,95.8677359 136.985599,93.3667782 135.082457,91.8162852 C133.304173,90.3653768 130.514412,89.6405528 126.710651,89.6405528 L122.306561,89.5800458 L119.41086,89.5397077 L119.240599,89.5371866 L115.971584,96.3202782 L115.971584,117.410764 L118.456136,117.410764 L123.368487,117.410764 L123.368487,115.429158 L123.368487,97.4686514 L123.368487,96.3202782 L125.617196,96.3202782 L126.672815,96.3202782 C128.19886,96.3202782 129.250696,96.6707148 129.8258,97.3703275 C130.30127,97.9464049 130.539636,98.8842641 130.539636,100.183905 C130.539636,101.309588 130.157494,102.228539 129.394472,102.940757 C129.129621,103.187827 128.840807,103.376912 128.541904,103.538264 C127.978151,103.84206 127.358904,104.009715 126.672815,104.009715 L126.020778,104.009715 L123.782158,104.009715 L127.112972,107.167426 L129.216643,109.160377 L130.896554,110.752468 L131.435084,111.262996 L133.349576,113.078208 L133.639651,113.35175 L138.386785,117.850701 L138.386785,109.517116 L138.386785,108.097722 L137.685561,107.487609 L134.594375,104.796306 Z" id="Fill-56" fill="#29235C"></path>
                    <path d="M163.278972,92.2674408 C161.227009,90.5165183 158.911457,89.6404268 156.332315,89.6404268 L148.882442,89.7059761 L146.983084,93.5280042 L146.559322,94.3788845 L145.594509,96.3201521 L145.594509,101.898145 L145.594509,103.243166 L145.594509,117.410638 L152.991412,117.410638 L152.991412,96.3201521 L156.294479,96.3201521 C157.321091,96.3201521 158.222845,96.6831944 158.99974,97.4080183 C159.774113,98.1341028 160.162561,99.0606169 160.162561,100.185039 C160.162561,101.337194 159.781681,102.268751 159.017397,102.980969 C158.254375,103.694448 157.346315,104.049927 156.294479,104.049927 L154.717987,104.049927 L154.717987,110.730913 L156.294479,110.730913 C158.873621,110.730913 161.189173,109.867427 163.241136,108.141715 C165.644972,106.11473 166.845628,103.463765 166.845628,100.185039 C166.845628,96.9340465 165.656322,94.2944268 163.278972,92.2674408" id="Fill-58" fill="#29235C"></path>
                </g>
            </g>
        </g>
    </g>
</svg>