<?xml version="1.0" encoding="UTF-8" standalone="no"?>
<svg width="91px" height="96px" viewBox="0 0 91 96" version="1.1" xmlns="http://www.w3.org/2000/svg" xmlns:xlink="http://www.w3.org/1999/xlink">
    <!-- Generator: Sketch 42 (36781) - http://www.bohemiancoding.com/sketch -->
    <title>logo-light</title>
    <desc>Created with Sketch.</desc>
    <defs>
        <polygon id="path-1" points="0 9.58701972 0 0.51096338 8.26171343 0.51096338 8.26171343 9.58701972 1.22260382e-16 9.58701972"></polygon>
    </defs>
    <g id="Boostrap-3-Grid" stroke="none" stroke-width="1" fill="none" fill-rule="evenodd">
        <g id="[LG]-Large-Desktop-(1200px-or-more)-(LG-or-bigger)" transform="translate(-194.000000, -3241.000000)">
            <g id="Group-11" transform="translate(0.000000, 3214.000000)">
                <g id="logo-light" transform="translate(194.000000, 27.000000)">
                    <path d="M90.3071097,70.7247549 C86.584259,70.8079099 82.8722739,70.7835718 79.1765873,70.557769 C77.0652515,70.5462761 74.9525575,70.4976 72.8561619,70.342107 C72.4690724,67.6040789 71.9366545,64.8829521 71.2548336,62.1976563 C70.8874381,62.5201352 70.43855,62.685093 69.98355,62.7107831 C70.6042515,65.1858254 71.1033933,67.6933183 71.4714679,70.221769 C70.3692813,70.1122479 69.2718485,69.9716282 68.183244,69.7803042 C64.5547888,69.1711775 60.967759,68.3037972 57.5016097,67.0950085 C56.8605351,66.8678535 56.2276097,66.6197408 55.5946843,66.3716282 C54.9189754,66.1066141 54.2514157,65.8246986 53.5872515,65.5339944 C53.5831769,65.4224451 53.5716321,65.3122479 53.5499007,65.2020507 C53.5152664,65.0262761 53.4561843,64.8559099 53.37605,64.6923042 C53.291841,64.5205859 53.1920127,64.3542761 53.0568709,64.2048676 C52.986244,64.1271211 52.9067888,64.0628958 52.8280127,63.9979944 C52.5889679,64.0378817 52.3472067,64.0716845 52.0979754,64.0926423 C51.8202216,64.1156282 51.536356,64.1277972 51.2463784,64.1277972 C51.0154828,64.1277972 50.7920575,64.1142761 50.5693112,64.0994028 C50.4022515,64.0885859 50.2385873,64.0703324 50.0762813,64.0507268 C48.2589978,63.8323606 46.7099604,63.1015437 45.4678784,61.8521915 C44.9408933,61.3228394 44.5089828,60.7252056 44.1578858,60.0721352 C40.4160201,57.2070085 37.2031769,53.6671775 34.8534754,49.6169239 C34.6069604,49.7568676 34.3706321,49.9157408 34.1458485,50.0955718 C34.1281918,50.109093 34.109856,50.1205859 34.0928784,50.1347831 C33.9726769,50.2328113 33.8613037,50.3328676 33.7567216,50.4356282 C33.8545127,50.6053183 33.9584157,50.7716282 34.0589231,50.9392901 C34.259259,51.2759662 34.4616321,51.6112901 34.6857366,51.933093 C35.7057515,53.5231775 36.8887515,55.0044169 38.1546022,56.4025014 C38.4364306,56.7209239 38.7284455,57.0292056 39.0245351,57.3327549 L40.0683187,57.3327549 L40.0683187,58.3569803 C40.779341,59.0242479 41.5148112,59.6651493 42.2591097,60.2932056 C43.7266545,61.4776563 45.2607515,62.5776 46.8641172,63.5673465 C47.7116396,64.0946704 48.5781769,64.5888676 49.4576172,65.0580507 C49.4311321,65.1560789 49.4168709,65.2554592 49.4039679,65.3555155 C49.3509978,65.7902197 49.4290948,66.237769 49.6511619,66.633262 C49.6661022,66.6596282 49.6824007,66.6846423 49.6980201,66.7103324 C49.7632142,66.8151211 49.8351993,66.9178817 49.9207664,67.0132056 C50.1346843,67.2498254 50.3920649,67.4208676 50.6684604,67.5371493 C51.3984978,67.8440789 52.271147,67.7325296 52.8993187,67.1700507 C53.0079754,67.0726986 53.1037291,66.9665577 53.187259,66.8543324 C54.4585425,67.4053183 55.748841,67.9096563 57.0520425,68.3714028 C60.6010425,69.6085859 64.2620948,70.4935437 67.9591396,71.1134873 C69.1856022,71.3291493 70.4168187,71.4826141 71.6507515,71.5982197 C71.7037216,72.0133183 71.7661993,72.4270648 71.8123784,72.8435155 C72.2368187,76.6591775 72.4779007,80.5072901 72.5138933,84.3439099 C72.6347739,86.2612056 72.6911396,88.1825577 72.6368112,90.1025577 C72.6110052,91.0625577 72.5539604,92.0225577 72.4398709,92.9757972 C72.3502291,93.9351211 72.1709455,94.8795718 71.9257888,95.8186141 C72.6863858,94.029093 73.0687216,92.0894873 73.343759,90.1634028 C73.6160799,88.2305577 73.7770276,86.2828394 73.8721022,84.3351211 C73.8347515,80.4390085 73.5916321,76.5604732 73.1624381,72.6914028 C73.1257664,72.3641915 73.0755127,72.0376563 73.0347664,71.7111211 C75.0829455,71.853093 77.133841,71.8983887 79.1752291,71.9098817 C82.9103037,71.6800225 86.6324754,71.3541634 90.3071097,70.7247549" id="Fill-1" fill="#FEFEFE"></path>
                    <path d="M68.2084388,54.8235042 C68.4603866,54.8235042 68.6722672,54.7586028 68.8637746,54.6281239 C68.606394,53.9540958 68.346297,53.2814197 68.0658269,52.6155042 L67.3914761,52.6155042 L67.3914761,54.5855324 C67.4227149,54.664631 67.4532746,54.7444056 67.4838343,54.8235042 L68.2084388,54.8235042 Z" id="Fill-3" fill="#FEFEFE"></path>
                    <path d="M48.7123679,32.0457465 C49.1252634,32.2830423 49.5612485,32.484507 49.9564873,32.7508732 L51.1367709,33.5580845 L52.3170545,34.3652958 C52.7122933,34.631662 53.1109276,34.8939718 53.4640619,35.2157746 L55.6534948,37.0539718 C56.0324351,37.3453521 56.3509351,37.7009577 56.6864127,38.039662 L57.6860545,39.0611831 L58.0228903,39.4046197 L58.5525918,39.9454648 C58.404547,40.2145352 58.3142261,40.5072676 58.2931739,40.8074366 C58.2558231,41.3543662 58.4289948,41.9148169 58.8262709,42.3542535 C59.2391664,42.8112676 59.8068978,43.0384225 60.3787037,43.0431549 C60.5933007,43.044507 60.8072187,43.0154366 61.0150246,42.9518873 C61.1379425,43.1067042 61.2635769,43.2588169 61.3830993,43.416338 L61.6785097,43.8591549 L62.9722037,45.7953803 C63.2635396,46.1989859 63.520241,46.6235493 63.7653978,47.0555493 L65.3280172,47.0771831 C64.9538306,46.3909859 64.5769276,45.7068169 64.1185321,45.0706479 L62.4818903,42.6212958 C62.3623679,42.4644507 62.2374127,42.312338 62.115853,42.1581972 C62.2374127,41.9864789 62.3250172,41.7992113 62.388853,41.6051831 C62.5409724,41.1454648 62.5328231,40.6458592 62.3535396,40.1895211 C62.2638978,39.959662 62.1375843,39.7406197 61.9623754,39.5465915 C61.9094052,39.4870986 61.8476067,39.4411268 61.7892037,39.3890704 C61.3993978,39.0442817 60.913159,38.8630986 60.4180918,38.8576901 C60.1240396,38.8543099 59.8313455,38.9144789 59.5556291,39.0341408 L58.6673604,38.1261972 L57.6344425,37.0715493 C57.2874201,36.7220282 56.9573754,36.3549296 56.5662112,36.0527324 L54.3020769,34.152338 C53.9367187,33.8203944 53.5251813,33.5479437 53.1170396,33.2721127 L51.8960097,32.4378592 L50.6749799,31.6036056 C50.266159,31.3284507 49.8172709,31.1195493 49.3901142,30.8741408 L46.7932187,29.460507 L44.0747634,28.2983662 C44.0469201,28.2868732 44.0190769,28.2740282 43.9912336,28.2625352 C43.9464127,28.7121127 43.7549052,29.1447887 43.4248604,29.4929577 C44.3525172,29.879662 45.2686291,30.2967887 46.1990022,30.6767324 L48.7123679,32.0457465 Z" id="Fill-5" fill="#FEFEFE"></path>
                    <path d="M32.5663194,26.1418817 L33.9890433,26.4237972 C34.4630582,26.5130366 34.9221328,26.6793465 35.3886776,26.8030648 L38.1682522,27.5879662 C38.7224015,27.7576563 39.2629687,27.9665577 39.8028567,28.1761352 C39.7790881,27.7556282 39.8823119,27.3351211 40.1084537,26.9659944 C39.5556627,26.8165859 39.0021925,26.6725859 38.4412522,26.5617127 L35.5380806,26.0749521 C35.0532,26.0066704 34.5764687,25.8964732 34.0875134,25.8633465 L32.6247224,25.7517972 L30.0787597,25.5787268 C30.0916627,25.365769 30.1018493,25.1528113 30.1174687,24.9391775 C30.0692522,25.149431 30.028506,25.3617127 29.9836851,25.5726423 L29.7093269,25.5537127 L29.9762149,25.6084732 C29.2556851,29.0178254 28.943297,32.5373746 29.1062821,36.0724732 C29.4057672,38.7259944 29.9524463,41.361938 30.7965731,43.9032338 C31.1904537,43.6679662 31.6013119,43.4637972 32.0203194,43.2758535 C31.2454612,40.894107 30.7354537,38.4258254 30.4672075,35.9325296 C29.9449761,32.5576563 29.8634836,29.0976 30.0753642,25.6287549 L32.5663194,26.1418817 Z" id="Fill-7" fill="#FEFEFE"></path>
                    <path d="M58.2933776,40.8074366 C58.3137507,40.5072676 58.4040716,40.2145352 58.5527955,39.9454648 L58.023094,39.4046197 C57.9157955,39.3938028 57.8091761,39.3789296 57.7011985,39.3708169 C55.8194,39.1477183 53.9192657,39.1193239 52.029997,39.2078873 C50.1366537,39.2734648 48.2623254,39.5628169 46.4056537,39.9008451 C44.555094,40.2794366 42.7276239,40.763493 40.9422582,41.3699155 C40.2224075,41.6126197 39.5120642,41.8783099 38.8064746,42.1568451 L42.6780493,42.2271549 C47.7217582,40.6783099 53.0846463,40.1334085 58.2933776,40.8074366" id="Fill-9" fill="#FEFEFE"></path>
                    <path d="M26.0452187,49.3381183 C24.6829351,50.3474704 23.3647933,51.4122592 22.0799276,52.5135549 C22.3665097,52.8765972 22.6109873,53.2605972 22.8133604,53.666231 C23.6832933,52.9164845 24.5749575,52.1931042 25.4788455,51.4859493 C25.5895396,50.7395831 25.7783306,50.0229634 26.0452187,49.3381183" id="Fill-11" fill="#FEFEFE"></path>
                    <path d="M7.83998955,70.2780169 C9.50787015,68.1565521 11.2185343,66.0783549 12.9943925,64.0623549 L11.7869448,64.0623549 C10.3927433,66.0878197 9.05490746,68.1470873 7.83998955,70.2780169" id="Fill-13" fill="#FEFEFE"></path>
                    <path d="M73.5597821,45.1306141 C70.3883642,43.0862197 66.9378343,41.4285296 63.276103,40.437431 C62.9718642,40.3427831 62.6635507,40.2636845 62.3538791,40.1893183 C62.5324836,40.6456563 62.5406328,41.145262 62.3891925,41.6049803 C62.5630433,41.6509521 62.7382522,41.6915155 62.9114239,41.7401915 C66.4271478,42.6954592 69.7540806,44.277431 72.805297,46.2677408 C74.670797,47.3649803 76.4500507,48.621093 78.1539239,49.9914592 L78.4391478,49.4201915 C76.9308567,47.877431 75.3111925,46.4313465 73.5597821,45.1306141" id="Fill-15" fill="#FEFEFE"></path>
                    <path d="M74.9686522,57.0966761 L75.4779806,57.5388169 L75.4779806,57.9572958 L77.248406,56.4206197 C77.3095254,56.364507 77.3733612,56.3117746 77.4351597,56.2570141 L77.4351597,55.3930141 C77.215809,55.5430986 76.9930627,55.6898028 76.7777866,55.8439437 L74.9686522,57.0966761 Z" id="Fill-17" fill="#FEFEFE"></path>
                    <path d="M61.4843537,63.7027606 L60.1702866,64.0827042 C59.7125701,64.2179155 59.2562119,64.3585352 58.782197,64.4261408 L55.9666299,64.9460282 C55.5000851,65.0535211 55.0213164,65.0731268 54.5459433,65.1163944 L53.549697,65.2015775 C53.5721075,65.3117746 53.5829731,65.4226479 53.5870478,65.5341972 C54.2512119,65.8249014 54.9187716,66.1068169 55.5944806,66.3711549 C55.7859881,66.3488451 55.9768164,66.3265352 56.1656075,66.2839437 L59.0769284,65.7458028 C59.5665627,65.6748169 60.0392194,65.5308169 60.5125552,65.3908732 L61.9346,64.980507 L63.3566448,64.5687887 C63.8293015,64.4288451 64.2768313,64.2158873 64.7379433,64.0428169 L65.0265627,63.9265352 L61.4843537,63.9265352 L61.4843537,63.7027606 Z" id="Fill-19" fill="#FEFEFE"></path>
                    <g id="Group-23" transform="translate(0.000000, 39.706141)">
                        <mask id="mask-2" fill="white">
                            <use xlink:href="#path-1"></use>
                        </mask>
                        <g id="Clip-22"></g>
                        <path d="M8.26171343,8.03073803 C6.79416866,6.97000563 5.35854179,5.86532958 3.98946716,4.68290704 C3.26010896,4.05417465 2.55112388,3.40178028 1.88220597,2.70949859 C1.19427313,2.03209014 0.574250746,1.29518873 -0.000271641791,0.51096338 C0.908370149,2.23152676 2.17218358,3.75535775 3.4944,5.18859718 C4.82272836,6.62386479 6.23390746,7.98206197 7.68719104,9.29023099 C7.81282537,9.39096338 7.94117612,9.48696338 8.06748955,9.58701972 C8.07020597,9.0515831 8.13879552,8.53372394 8.26171343,8.03073803" id="Fill-21" fill="#FEFEFE" mask="url(#mask-2)"></path>
                    </g>
                    <path d="M49.4043075,65.3558535 C48.7333522,65.3517972 48.0617179,65.349093 47.3914418,65.3240789 L44.5358075,65.0387831 C43.5796284,64.9792901 42.6417851,64.7724169 41.7005463,64.5979944 L40.2886881,64.3336563 C39.865606,64.2545577 39.4418448,64.1788394 39.0269119,64.0625577 L37.6109791,64.0625577 C37.2143821,64.0625577 36.8266134,64.0449803 36.4435985,64.017262 C35.9913149,63.9841352 35.5478597,63.934107 35.1152701,63.8624451 C34.6011881,63.777262 34.1068,63.6542197 33.6205612,63.5142761 C33.1845761,63.3885296 32.761494,63.2397972 32.3485985,63.070107 C31.097009,62.5563042 29.9459269,61.8532056 28.9170836,60.9398535 C28.699091,60.7465014 28.5014716,60.5436845 28.3038522,60.3415437 C26.6631358,59.6107268 25.0516209,58.8129803 23.4672701,57.9625014 C23.4027552,58.4343887 23.2954567,58.8873465 23.1446955,59.3206986 C26.0940463,60.8864451 29.1459418,62.2635718 32.2895164,63.4047549 C32.2304343,63.9746704 32.3968149,64.5648676 32.8117478,65.0245859 C33.1968,65.4505014 33.716994,65.6810366 34.2487328,65.7141634 C34.6589119,65.7398535 35.075203,65.6479099 35.4432776,65.4336 C35.5648373,65.3632901 35.6816433,65.2787831 35.7903,65.181431 C35.9539642,65.0347268 36.0802776,64.8643606 36.186897,64.6852056 C36.9760164,64.9164169 37.7671731,65.1415437 38.5664791,65.3416563 C39.0364194,65.4863324 39.5233373,65.565431 40.0061806,65.6566986 L41.4567478,65.9284732 C42.4244716,66.1069521 43.3867627,66.3178817 44.3721433,66.3807549 L47.3126657,66.6734873 C48.0637552,66.7025577 48.8168821,66.7039099 49.570009,66.7093183 C49.5971731,66.6836282 49.6243373,66.6586141 49.6515015,66.6329239 C49.4287552,66.238107 49.3513373,65.7905577 49.4043075,65.3558535" id="Fill-24" fill="#FEFEFE"></path>
                    <path d="M70.9400007,61.1499718 L69.8921425,60.1609014 L69.062956,59.3780282 L68.607956,58.9487324 C68.556344,58.9872676 68.5006575,59.0190423 68.4517619,59.0629859 C67.8249485,59.6241127 67.6212172,60.4725634 67.8480381,61.2263662 C67.6952396,61.3047887 67.5437993,61.3845634 67.3916799,61.463662 L67.3916799,62.976 L67.4826799,62.939493 L68.6487022,62.3371268 C69.0446201,62.6149859 69.5159187,62.7373521 69.9831425,62.7109859 C70.4381425,62.6852958 70.8870306,62.520338 71.2551052,62.1978592 C71.2605381,62.1931268 71.26665,62.1904225 71.2727619,62.1850141 C71.4072246,62.0646761 71.5158813,61.9274366 71.6116351,61.7841127 L71.0126649,61.2189296 L70.9400007,61.1499718 Z" id="Fill-26" fill="#FEFEFE"></path>
                    <path d="M61.0152963,42.9517521 C60.8074903,43.0153014 60.5928933,43.0450479 60.3782963,43.0430197 C60.1983336,46.0845972 59.6713485,49.0802028 58.8136396,51.8973296 C59.10905,52.6781746 59.2964828,53.5333859 59.3772963,54.4595831 C60.0543634,52.6619493 60.6051172,50.7798085 61.000356,48.8415549 C61.3344754,47.2088789 61.5504306,45.5396958 61.6787813,43.8590197 L61.3826918,43.4162028 C61.2631694,43.2593577 61.1375351,43.106569 61.0152963,42.9517521" id="Fill-28" fill="#FEFEFE"></path>
                    <path d="M53.0571425,64.205138 C53.1916052,64.3545465 53.2921127,64.5201803 53.3763216,64.6918986 C53.6635828,64.3525183 53.9433739,63.9955606 54.2224858,63.6358986 C53.7783515,63.7940958 53.3145231,63.917138 52.8282843,63.9975887 C52.9070604,64.0631662 52.9865157,64.1273915 53.0571425,64.205138" id="Fill-30" fill="#FEFEFE"></path>
                    <path d="M49.6980881,66.7101972 C49.6824687,66.684507 49.6661701,66.659493 49.6512299,66.6331268 C49.6240657,66.6588169 49.5969015,66.683831 49.5697373,66.7088451 C49.392491,66.8738028 49.2152448,67.0461972 49.0379985,67.2043944 C48.3079612,67.9250704 47.4726627,68.4571268 46.7840507,69.0899155 C46.0533343,69.672 45.388491,70.2703099 44.6998791,70.7476056 C44.0268866,71.2478873 43.3912448,71.7109859 42.7773343,72.1030986 C42.1722522,72.5094085 41.6160657,72.8859718 41.0911179,73.1847887 C40.5702448,73.4964507 40.1050582,73.7743099 39.7003119,74.016338 C39.2833418,74.243493 38.9295284,74.436169 38.6422672,74.592338 C38.5390433,74.6484507 38.4555134,74.6944225 38.3699463,74.7410704 C38.1675731,74.1995493 37.7329463,73.0360563 37.1020582,71.3465915 C36.8501104,70.7597746 36.6918791,70.0756056 36.476603,69.347493 C36.2654015,68.6214085 36.0372224,67.836507 35.7934239,66.9975211 C35.6548866,66.5858028 35.5822224,66.1369014 35.4919015,65.6812394 C35.4762821,65.6007887 35.4593045,65.5149296 35.443006,65.4338028 C35.0756104,65.6481127 34.6586403,65.7393803 34.2491403,65.7143662 C34.2783418,65.8090141 34.3095806,65.9090704 34.3387821,66.0030423 C34.4807149,66.4566761 34.6029537,66.9008451 34.7910657,67.3132394 C35.1333343,68.1414085 35.4538716,68.9175211 35.7506403,69.6348169 C36.0575955,70.344 36.3007149,71.0105915 36.619894,71.5615775 C37.4701328,73.1577465 38.0555209,74.255662 38.3264836,74.7647324 C37.9611254,74.963493 37.7614687,75.072338 37.7614687,75.072338 C37.7614687,75.072338 37.9760657,74.9918873 38.3692672,74.8451831 C38.4555134,75.0067606 38.5010134,75.0919437 38.5010134,75.0919437 C38.5010134,75.0919437 38.4677373,75.0020282 38.4039015,74.832338 C38.4969388,74.7978592 38.589297,74.7633803 38.7013493,74.7214648 C39.0083045,74.6072113 39.3858866,74.4659155 39.8307,74.3002817 C40.2714388,74.124507 40.7699015,73.8966761 41.3342373,73.6512676 C41.9046851,73.4146479 42.5104463,73.1070423 43.1732522,72.7730704 C43.8455657,72.4553239 44.5389313,72.0503662 45.2832299,71.6183662 C46.0417896,71.208 46.7874463,70.6752676 47.6084836,70.1574085 C48.0057597,69.8809014 48.3867373,69.5611268 48.7751851,69.2332394 C49.1683866,68.9114366 49.5602299,68.5700282 49.9486776,68.207662 C50.1884015,67.9940282 50.4288045,67.7628169 50.6685284,67.5370141 C50.3921328,67.4207324 50.1347522,67.2496901 49.9208343,67.0130704 C49.8352672,66.9177465 49.7632821,66.815662 49.6980881,66.7101972" id="Fill-32" fill="#FEFEFE"></path>
                    <path d="M75.0011134,2.43867042 C74.6656358,2.51371268 74.2615687,2.63675493 73.7773672,2.76655775 C73.301994,2.91461408 72.7580313,3.10120563 72.1570239,3.32971268 C70.9584045,3.79348732 69.5336433,4.43303662 67.9316358,5.23416338 C67.1350463,5.64047324 66.2909194,6.08193803 65.4128373,6.56869859 C64.5300015,7.04734648 63.6845164,7.67945915 62.7636507,8.27574085 C60.9422925,9.50210704 59.0054866,10.8758535 57.0055239,12.4017127 C56.473106,12.8039662 55.9427254,13.2190648 55.4123448,13.6476845 C55.1311955,13.461093 54.816091,13.3495437 54.4901209,13.3123606 C54.0813,12.5720789 53.6718,11.8507268 53.2711284,11.1638535 C52.723091,10.270107 52.2592627,9.37568451 51.6969642,8.60024789 C51.1421358,7.82075493 50.6076806,7.08858592 50.096994,6.40644507 C49.0776582,5.04216338 48.1656209,3.87258592 47.399591,2.92272676 C46.6383149,1.96881127 46.0053896,1.2467831 45.5789119,0.751909859 C45.1476806,0.261092958 44.9174642,0.000135211268 44.9174642,0.000135211268 C44.9174642,0.000135211268 45.1089716,0.29016338 45.468897,0.834388732 C45.8193149,1.38334648 46.3327179,2.18920563 46.9860164,3.2147831 C47.6338821,4.24238873 48.3985537,5.50255775 49.2460761,6.96351549 C49.6698373,7.69298028 50.1112552,8.47517746 50.5662552,9.30402254 C51.0124269,10.1369239 51.5937403,10.9441352 52.098994,11.8473465 C52.4337925,12.4206423 52.7740239,13.0182761 53.1142552,13.6274028 C53.0191806,13.6882479 52.9247851,13.7511211 52.8378597,13.8288676 C52.1410985,14.4528676 51.9692851,15.4311211 52.3305687,16.2396845 C51.8592701,16.6392338 51.3879716,17.0468958 50.9316134,17.4782197 C49.9394418,18.4287549 48.9302925,19.3955155 47.9089194,20.3744451 C46.9520612,21.4176 45.9836582,22.4736 45.0077851,23.5383887 C44.2689194,24.3956282 43.5687627,25.2968113 42.8590985,26.1946141 C42.1032552,25.809262 41.1579418,25.8978254 40.4883448,26.4968113 C40.3328299,26.6360789 40.2126284,26.7976563 40.1087254,26.9659944 C39.8819045,27.3351211 39.7793597,27.7556282 39.8024493,28.1761352 C39.8289343,28.6365296 39.9966731,29.0921915 40.3307925,29.4619944 C40.3647478,29.4998535 40.405494,29.5275718 40.4414866,29.5620507 L39.7671358,30.5572056 L39.4588224,31.0135437 L39.1878597,31.4942197 L38.6452552,32.4535437 L37.5627627,34.3708394 C36.8918075,35.6722479 36.3301881,37.0243606 35.7162776,38.3359099 C35.2028746,39.6907268 34.7512701,41.0583887 34.275897,42.3969803 C34.2657104,42.4395718 34.2548448,42.4808113 34.2446582,42.5227268 C34.7363299,42.405769 35.2436209,42.3199099 35.7617776,42.2570366 C36.1576955,41.1266704 36.544106,39.9827831 36.9746582,38.8443042 C37.5729493,37.5712901 38.1169119,36.2583887 38.7688522,34.9921352 L39.8228224,33.1268958 L40.3504866,32.1919099 L40.6146582,31.7247549 L40.9161806,31.2792338 L41.6876433,30.1394028 C42.2587701,30.1968676 42.849591,30.0305577 43.3093448,29.6188394 C43.3528075,29.5803042 43.3854045,29.5343324 43.4247925,29.493093 C43.7555164,29.1442479 43.9470239,28.7122479 43.9911657,28.2626704 C44.0271582,27.8962479 43.9640015,27.525769 43.8057701,27.1830085 C44.5446358,26.2514028 45.2685612,25.3123606 46.0366284,24.4206423 C46.9934866,23.3768113 47.9428746,22.341769 48.8807179,21.3188958 C49.8844343,20.3575437 50.8759269,19.4076845 51.8511209,18.4733746 C52.3081582,18.0413746 52.7808149,17.6330366 53.2541507,17.2328113 C53.7987925,17.5235155 54.4439418,17.5620507 55.0184642,17.3376 C55.0795836,17.4687549 55.1440985,17.5945014 55.2038597,17.7270085 C56.1383075,19.8856563 57.0727552,22.2085859 57.8387851,24.6653746 C59.2343448,29.0827268 60.230591,33.9374873 60.4180239,38.8578254 C60.913091,38.8632338 61.3993299,39.0437408 61.7891358,39.3892056 C61.6560313,34.1227268 60.613606,28.942107 59.1338373,24.2577127 C58.3494716,21.7441352 57.4041582,19.3914592 56.4425463,17.1739944 C56.3250612,16.9130366 56.2014642,16.6656 56.0812627,16.4107268 C56.3725985,15.8915155 56.4350761,15.2756282 56.245606,14.7165296 C56.7753075,14.2879099 57.3063672,13.8714592 57.8326731,13.473938 C59.8061507,11.9683606 61.7259791,10.6067831 63.5235687,9.39664225 C64.4111582,8.77264225 65.3225164,8.27168451 66.1231806,7.69230423 C66.9292776,7.12036056 67.7061731,6.59709296 68.4416433,6.11168451 C69.9193746,5.15506479 71.2436284,4.37354366 72.3661881,3.78943099 C72.9291657,3.5027831 73.4391731,3.26007887 73.8846657,3.0491493 C74.3376284,2.86188169 74.7213224,2.6867831 75.0405015,2.57050141 C75.6883672,2.35483944 76.0333522,2.23990986 76.0333522,2.23990986 C76.0333522,2.23990986 75.674106,2.30954366 75.0011134,2.43867042" id="Fill-34" fill="#FEFEFE"></path>
                    <path d="M33.75645,50.4358986 C32.9965321,51.1809127 32.6250619,52.0550535 32.6250619,53.0988845 C32.6250619,54.220462 33.0759873,55.1520676 33.9920993,55.9471099 C33.964256,55.4380394 33.9357336,54.9255887 33.9065321,54.4043493 C33.9561067,53.2773634 34.0070396,52.1186028 34.0586515,50.9395606 C33.9588231,50.7712225 33.854241,50.6055887 33.75645,50.4358986" id="Fill-36" fill="#FEFEFE"></path>
                    <path d="M22.2850851,58.8705803 C21.978809,59.8244958 21.4375627,60.6702423 20.6545552,61.4044394 C19.4416746,62.5381859 18.0108015,63.1040451 16.3626149,63.1040451 L13.8560403,63.1040451 L12.4455403,63.1040451 L8.91962985,63.1040451 L8.91962985,58.2905239 L15.9239134,58.2905239 C16.0672045,58.2905239 16.2009881,58.2628056 16.3300179,58.218862 C16.512697,58.1559887 16.6824731,58.0539042 16.8366299,57.9024676 C17.0322119,57.7104676 17.1544507,57.4907493 17.2047045,57.2446648 C17.2223612,57.1588056 17.2318687,57.0702423 17.2318687,56.9782986 C17.2318687,56.0142423 16.5595552,55.5322141 15.2149284,55.5322141 C13.4343164,55.5322141 11.9579433,54.9055099 10.785809,53.6493972 C9.79907015,52.591369 9.23269701,51.4008338 9.07718209,50.0798197 C9.0479806,49.8330592 9.02828657,49.5829183 9.02828657,49.326693 C9.02828657,49.0062423 9.06088358,48.6952563 9.11045821,48.3890028 C9.31351045,47.1403268 9.92402537,46.0059042 10.9569433,44.9904676 C12.2424881,43.7255662 13.6733612,43.0934535 15.2488836,43.0934535 L24.3964209,43.0934535 L21.9747343,47.9062986 L15.7405552,47.9062986 C15.3962493,47.9062986 15.082503,48.0388056 14.8020328,48.3024676 C14.5202045,48.5668056 14.3796299,48.8804958 14.3796299,49.2442141 C14.3796299,50.2278761 15.0702791,50.718693 16.4508985,50.718693 C18.085503,50.718693 19.4946448,51.2764394 20.6756075,52.3919324 C20.9302716,52.6292282 21.1523388,52.8834254 21.3560701,53.1464113 C21.6426522,53.5162141 21.8823761,53.9103549 22.0677716,54.3301859 C22.4086821,55.1022423 22.5832119,55.9574535 22.5832119,56.8985239 C22.5832119,57.0932282 22.5723463,57.2825239 22.557406,57.4704676 C22.5180179,57.9606085 22.4270179,58.4277634 22.2850851,58.8705803 M22.0799955,52.5136225 C21.8552119,52.2296789 21.6134507,51.9538479 21.3377343,51.6969465 C19.9774881,50.4117634 18.3333761,49.7607211 16.4508985,49.7607211 C15.3426,49.7607211 15.3426,49.4497352 15.3426,49.2448901 C15.3426,49.1745803 15.3514284,49.1035944 15.4614433,48.9994817 C15.6060925,48.8642704 15.6970925,48.8642704 15.7412343,48.8642704 L22.5696299,48.8642704 L25.9549657,42.1348056 L15.2488836,42.1348056 C13.418697,42.1348056 11.7474209,42.8662986 10.2812343,44.3083268 C9.23812985,45.3339042 8.56785373,46.4838761 8.26157761,47.7366085 C8.1386597,48.2395944 8.07007015,48.7574535 8.06735373,49.2928901 C8.06735373,49.3043831 8.06599552,49.3152 8.06599552,49.326693 C8.06599552,51.1946366 8.74374179,52.8692282 10.0808985,54.3017915 C11.436391,55.7546366 13.1640328,56.4901859 15.2156075,56.4901859 C16.2695776,56.4901859 16.2695776,56.7842704 16.2695776,56.9782986 C16.2695776,57.0641577 16.2519209,57.1317634 16.1609209,57.2210028 C16.0556597,57.3244394 15.9857119,57.3332282 15.9239134,57.3332282 L7.95733881,57.3332282 L7.95733881,64.062693 L11.786809,64.062693 L12.9942567,64.062693 L16.363294,64.062693 C18.2559582,64.062693 19.9218015,63.403538 21.3146448,62.1021296 C22.1750701,61.2955944 22.7815104,60.3633127 23.1448313,59.3208338 C23.2955925,58.8874817 23.402891,58.4338479 23.4667269,57.9619606 C23.5142642,57.6164958 23.5461821,57.2642704 23.5461821,56.8985239 C23.5461821,55.7079887 23.2949134,54.6296789 22.8134284,53.6662986 C22.6110552,53.2606648 22.3665776,52.8766648 22.0799955,52.5136225" id="Fill-38" fill="#FEFEFE"></path>
                    <path d="M32.7779963,50.0822535 C32.0377724,50.940169 31.6622276,51.9441127 31.6622276,53.0988169 C31.6622276,54.1581972 31.9888769,55.0938592 32.6313097,55.9112113 C32.8751082,56.2208451 33.1603321,56.5149296 33.4958097,56.7900845 C33.6778097,56.9388169 33.867959,57.0726761 34.0615037,57.1997746 C35.1725187,57.924507 36.4804739,58.2909296 37.9914813,58.2909296 L39.1052127,58.2909296 L39.1052127,63.1044507 L37.6111828,63.1044507 C37.1996455,63.1044507 36.7976157,63.0875493 36.403056,63.0557746 C35.8726754,63.0131831 35.363347,62.9320563 34.8635261,62.8326761 C34.8017276,62.819831 34.7399291,62.8069859 34.6781306,62.7934648 C34.2407873,62.699493 33.8129515,62.5865915 33.3993769,62.4473239 C33.2010784,62.3803944 33.0082127,62.3053521 32.815347,62.2282817 C32.4995634,62.1025352 32.19125,61.9632676 31.8910858,61.8098028 C31.0571455,61.3838873 30.2754963,60.8619718 29.5570037,60.2244507 C27.3926978,58.3044507 26.3115634,55.9294648 26.3115634,53.0988169 C26.3115634,52.2158873 26.4310858,51.3816338 26.6450037,50.5852394 C26.8765784,49.7273239 27.2283545,48.9174085 27.7084813,48.1602254 C28.2008321,47.3841127 28.8161007,46.6566761 29.5705858,45.9867042 C30.0608993,45.5513239 30.5804142,45.1727324 31.1223396,44.8360563 C31.5114664,44.5940282 31.9121381,44.3743099 32.3284291,44.1823099 C32.8574515,43.9389296 33.4109216,43.740169 33.9840858,43.5785915 C34.4621754,43.4440563 34.9531679,43.3345352 35.4611381,43.2567887 C35.8013694,43.2047324 36.1463545,43.1628169 36.4994888,43.1364507 C36.8634888,43.1094085 37.2329216,43.0931831 37.6111828,43.0931831 L40.0145336,43.1371268 L41.4875112,43.163493 L39.1052127,47.9060282 L37.9914813,47.9060282 C36.6169739,47.9060282 35.414959,48.2007887 34.3806828,48.7835493 C34.3596306,48.7957183 34.3392575,48.8092394 34.3182052,48.8214085 C34.0268694,48.9904225 33.7463993,49.1783662 33.4822276,49.3940282 C33.4048097,49.4569014 33.3375784,49.523831 33.2649142,49.5887324 C33.0890261,49.7476056 32.9253619,49.9118873 32.7779963,50.0822535 M34.0927425,50.1349859 C34.1097201,50.1207887 34.128056,50.1092958 34.1457127,50.0950986 C34.3704963,49.9159437 34.6068246,49.7563944 34.8533396,49.6171268 C35.7436455,49.1134648 36.7772425,48.8646761 37.9914813,48.8646761 L39.7001082,48.8646761 L43.0304366,42.2339155 L42.6779813,42.2271549 L38.8064067,42.1568451 L37.6111828,42.1352113 C36.975541,42.1352113 36.3629888,42.1838873 35.7613022,42.2569014 C35.2431455,42.3197746 34.7365336,42.4056338 34.2448619,42.5225915 C33.4693246,42.7071549 32.7270634,42.9579718 32.0201157,43.2757183 C31.6011082,43.464338 31.1909291,43.667831 30.7963694,43.9030986 C30.1389963,44.2945352 29.5169366,44.7508732 28.9301903,45.2714366 C27.5882799,46.4626479 26.6341381,47.8262535 26.0453545,49.3379155 C25.7784664,50.0227606 25.5896754,50.7393803 25.4789813,51.4857465 C25.4015634,52.0103662 25.3485933,52.5451268 25.3485933,53.0988169 C25.3485933,55.9166197 26.3489142,58.3456901 28.304056,60.3414085 C28.5016754,60.5435493 28.6992948,60.7463662 28.9166082,60.9397183 C29.9461306,61.8530704 31.0965336,62.556169 32.3488022,63.0699718 C32.7610187,63.239662 33.1847799,63.3890704 33.6207649,63.5148169 C34.1063246,63.6547606 34.6013918,63.7771268 35.1154739,63.8623099 C35.5480634,63.9339718 35.9915187,63.984 36.4431231,64.0171268 C36.8261381,64.0448451 37.2145858,64.0624225 37.6111828,64.0624225 L39.0271157,64.0624225 L40.0681828,64.0624225 L40.0681828,58.3571831 L40.0681828,57.3329577 L39.0243993,57.3329577 L37.9914813,57.3329577 C36.4329366,57.3329577 35.1623321,56.9131268 34.1070037,56.0504789 C34.0662575,56.0166761 34.0316231,55.9815211 33.9922351,55.9470423 C33.0761231,55.152 32.6251978,54.2203944 32.6251978,53.0988169 C32.6251978,52.055662 32.9966679,51.1808451 33.7565858,50.435831 C33.8611679,50.3330704 33.9732201,50.232338 34.0927425,50.1349859" id="Fill-40" fill="#FEFEFE"></path>
                    <path d="M52.9584007,57.8393239 C52.7254679,58.1787042 52.2942366,58.6296338 51.2463784,58.6296338 C50.4755948,58.6296338 49.9445351,58.3788169 49.5757813,57.8413521 C49.202953,57.2950986 49.0134828,56.5149296 49.0134828,55.5218028 C49.0134828,54.5144789 49.196841,53.7329577 49.5533709,53.2049577 C49.9234828,52.6661408 50.4613336,52.4146479 51.2463784,52.4146479 C52.017841,52.4146479 52.5563709,52.6722254 52.9387067,53.2252394 C53.3230799,53.7850141 53.5186619,54.5577465 53.5186619,55.5218028 C53.5186619,56.5257465 53.3312291,57.3038873 52.9584007,57.8393239 M51.2456993,51.4566761 C50.1407963,51.4566761 49.3116097,51.8589296 48.7594978,52.6641127 C48.2875201,53.3618028 48.0518709,54.3143662 48.0518709,55.5218028 C48.0518709,56.7163944 48.2943112,57.6689577 48.7798709,58.380169 C49.3319828,59.1853521 50.1543784,59.5876056 51.2456993,59.5876056 C52.3641843,59.5876056 53.2001619,59.1853521 53.752953,58.380169 C54.2378336,57.6824789 54.480953,56.7292394 54.480953,55.5218028 C54.480953,54.3549296 54.2310425,53.4084507 53.7325799,52.6837183 C53.1662067,51.8656901 52.3376993,51.4566761 51.2456993,51.4566761" id="Fill-42" fill="#FEFEFE"></path>
                    <path d="M56.3609858,61.1776901 C56.0900231,61.4501408 55.7993664,61.6867606 55.4964858,61.9030986 C54.7616948,62.4277183 53.9325082,62.7887324 53.0089261,62.9854648 C52.4540978,63.1037746 51.8693888,63.1700282 51.2459709,63.1700282 C49.1706276,63.1700282 47.4721873,62.5061408 46.1513291,61.1776901 C44.7632396,59.7823099 44.0691948,57.8967887 44.0691948,55.5218028 C44.0691948,53.147493 44.7632396,51.2619718 46.1513291,49.8665915 C47.4721873,48.5381408 49.1706276,47.8742535 51.2459709,47.8742535 C53.3620604,47.8742535 55.0801948,48.5381408 56.4017321,49.8665915 C57.3653813,50.8360563 57.9840455,52.0590423 58.2719858,53.5233803 C58.3949037,54.1467042 58.4634933,54.8092394 58.4634933,55.5218028 C58.4634933,55.9855775 58.428859,56.4256901 58.3745306,56.8522817 C58.1531425,58.5998873 57.4876201,60.0452958 56.3609858,61.1776901 M58.8139112,51.8974648 C58.4234261,50.8637746 57.8475455,49.9592113 57.0855903,49.1925634 C55.5827321,47.6815775 53.6174037,46.9156056 51.2459709,46.9156056 C48.913247,46.9156056 46.9689709,47.6822535 45.4674709,49.1925634 C43.9007769,50.7670986 43.1062246,52.8966761 43.1062246,55.5218028 C43.1062246,57.2646761 43.4641127,58.7837746 44.1574784,60.072338 C44.5092545,60.7247324 44.9411649,61.3223662 45.4674709,61.8523944 C46.709553,63.1017465 48.2592694,63.8325634 50.0758739,64.0509296 C50.238859,64.0705352 50.4025231,64.0881127 50.5695828,64.0996056 C50.7923291,64.1144789 51.0157545,64.128 51.2459709,64.128 C51.5359485,64.128 51.8198142,64.115831 52.098247,64.092169 C52.3467993,64.0712113 52.5892396,64.0374085 52.8282843,63.9981972 C53.3145231,63.9170704 53.7783515,63.7940282 54.2224858,63.635831 C55.2873216,63.2579155 56.2333142,62.6677183 57.0455231,61.8523944 C58.6251201,60.2629859 59.4257843,58.1334085 59.4257843,55.5218028 C59.4257843,55.1574085 59.4074485,54.804507 59.3775679,54.4597183 C59.2967545,53.5335211 59.1093216,52.6783099 58.8139112,51.8974648" id="Fill-44" fill="#FEFEFE"></path>
                    <path d="M68.8639784,54.6277859 C68.6724709,54.7589408 68.4599112,54.8231662 68.2086425,54.8231662 L67.4840381,54.8231662 L67.3916799,54.8231662 L67.3916799,54.5858704 L67.3916799,52.6158423 L68.0653515,52.6158423 L68.2086425,52.6158423 C68.7824858,52.6158423 69.0812918,52.7314479 69.1634634,52.8301521 C69.180441,52.8511099 69.3278067,53.0485183 69.3278067,53.729307 C69.3278067,54.0680113 69.232053,54.3086873 69.0167769,54.5081239 C68.9672022,54.5540958 68.9162694,54.5919549 68.8639784,54.6277859 L68.8639784,54.6277859 Z M74.5154858,63.2049127 L71.9593366,60.7920676 L71.8038216,60.6453634 L70.772941,59.6718423 L70.4822843,59.3980394 L69.5783963,58.5441803 L68.44565,57.4753352 L66.651456,55.7818141 L67.8568664,55.7818141 L68.2086425,55.7818141 C68.5780754,55.7818141 68.9115157,55.6918986 69.2150754,55.528969 C69.3760231,55.4424338 69.5315381,55.3410254 69.67415,55.2085183 C70.0850082,54.8265465 70.2900978,54.3337014 70.2900978,53.729307 C70.2900978,53.032969 70.1624261,52.5299831 69.9064037,52.2210254 C69.596053,51.8458141 69.030359,51.6578704 68.2086425,51.6578704 L67.6402321,51.6578704 L66.4287097,51.6578704 L66.4287097,52.2737577 L66.4287097,61.9062085 L66.4287097,62.968969 L63.7835978,62.968969 L62.446441,62.968969 L62.446441,51.6578704 L64.2060007,48.0200113 L64.298359,48.0206873 L65.8575828,48.0423211 L68.2283366,48.0754479 C70.2771948,48.0754479 71.7793739,48.4641803 72.7369112,49.2423211 C73.7610007,50.0738704 74.2737246,51.4151662 74.2737246,53.2662085 C74.2737246,53.9368563 74.0638813,54.5405746 73.6469112,55.0766873 C73.457441,55.3187155 73.066956,55.6939268 72.4740978,56.2036732 L74.1379037,57.6470535 L74.5154858,57.9742648 L74.5154858,58.7355042 L74.5154858,63.2049127 Z M73.9226276,56.1888 C74.1317918,55.984631 74.2913813,55.8122366 74.4075082,55.6641803 C74.9569037,54.9577014 75.2353366,54.1504901 75.2353366,53.2662085 C75.2353366,51.1217577 74.5996948,49.5181521 73.3453888,48.5006873 C72.2017769,47.5697577 70.5277843,47.1174761 68.2412396,47.1174761 L65.3278813,47.0769127 L63.7652619,47.0552789 L63.6049933,47.0532507 L61.48415,51.4395042 L61.48415,63.7024901 L61.48415,63.9262648 L65.0270381,63.9262648 L67.3916799,63.9262648 L67.3916799,62.9757296 L67.3916799,61.4633915 L67.3916799,57.8005183 L68.607956,58.949138 L69.062956,59.3777577 L69.8921425,60.161307 L70.9400007,61.1497014 L71.0126649,61.2186592 L71.6116351,61.7838423 L75.478456,65.4338704 L75.478456,57.9573634 L75.478456,57.5388845 L74.9684485,57.0967437 L73.9226276,56.1888 Z" id="Fill-46" fill="#FEFEFE"></path>
                    <path d="M83.34235,54.8459493 L83.34235,52.6156394 L84.1586336,52.6156394 C84.4649097,52.6156394 84.7188948,52.7190761 84.9565813,52.9408225 C85.1793276,53.1483718 85.279156,53.3924282 85.279156,53.7311324 C85.279156,54.1834141 85.1120963,54.3956958 84.9681261,54.5295549 C84.7365515,54.745893 84.4791709,54.8459493 84.1586336,54.8459493 L83.34235,54.8459493 Z M87.899141,57.9977239 C86.7942381,58.9232451 85.5474022,59.3863437 84.1586336,59.3863437 L83.309753,59.3863437 L83.309753,55.8039211 L84.1586336,55.8039211 C84.7250067,55.8039211 85.2132828,55.6125972 85.6248201,55.2299493 C86.0356784,54.8479775 86.241447,54.3483718 86.241447,53.7304563 C86.241447,53.1274141 86.0322828,52.6311887 85.6146336,52.2411042 C85.1969843,51.8523718 84.7114246,51.6576676 84.1586336,51.6576676 L82.380059,51.6576676 L82.380059,62.9687662 L78.3971112,62.9687662 L78.3971112,55.370569 L78.3971112,54.6492169 L78.3971112,51.6576676 L78.9166261,50.6172169 L79.1448052,50.1602028 L80.1668575,48.1104 L84.1790067,48.0752451 C85.5677754,48.0752451 86.8146112,48.5451042 87.9195142,49.4841465 C89.1996261,50.5712451 89.8400216,51.986907 89.8400216,53.7304563 C89.8400216,55.4888789 89.1935142,56.9106254 87.899141,57.9977239 L87.899141,57.9977239 Z M88.5442903,48.7553577 C87.2641784,47.6682592 85.7952754,47.1172732 84.1708575,47.1172732 L79.5672082,47.1571606 L78.4392157,49.4199211 L78.1539918,49.9911887 L77.4354993,51.4325408 L77.4354993,55.3928789 L77.4354993,56.2575549 L77.4354993,63.926738 L83.34235,63.926738 L83.34235,60.3443155 L84.1586336,60.3443155 C85.7742231,60.3443155 87.2404097,59.8014423 88.5198425,58.729893 C90.0342455,57.4575549 90.8023127,55.7755268 90.8023127,53.7311324 C90.8023127,51.7022873 90.0430739,50.0276958 88.5442903,48.7553577 L88.5442903,48.7553577 Z" id="Fill-48" fill="#FEFEFE"></path>
                </g>
            </g>
        </g>
    </g>
</svg>