<?xml version="1.0" encoding="UTF-8" standalone="no"?>
<svg width="139px" height="110px" viewBox="0 0 139 110" version="1.1" xmlns="http://www.w3.org/2000/svg" xmlns:xlink="http://www.w3.org/1999/xlink">
    <!-- Generator: Sketch 42 (36781) - http://www.bohemiancoding.com/sketch -->
    <title>partner-logo</title>
    <desc>Created with Sketch.</desc>
    <defs></defs>
    <g id="Boostrap-3-Grid" stroke="none" stroke-width="1" fill="none" fill-rule="evenodd">
        <g id="[LG]-Large-Desktop-(1200px-or-more)-(LG-or-bigger)" transform="translate(-239.000000, -2279.000000)" fill="#AEB1B7">
            <g id="Group-7" transform="translate(0.000000, 2135.000000)">
                <g id="partner-logo" transform="translate(239.000000, 144.000000)">
                    <path d="M34.039023,33.9644928 L68.078046,33.9644928 C68.078046,15.2071014 52.8375747,0 34.039023,0 C15.2404713,0 0,15.2071014 0,33.9644928 C0,52.7218841 15.2404713,67.9289855 34.039023,67.9289855 L34.039023,33.9644928 Z" id="Fill-1"></path>
                    <polygon id="Fill-3" points="95.3295552 56.180029 95.3295552 4.28872464 43.4042678 67.9293043 85.7433483 67.9293043 95.3295552 67.9293043 137.668636 67.9293043 137.668636 4.28872464"></polygon>
                    <path d="M53.5904115,94.5818261 L55.5795494,94.5818261 C57.4392736,94.5818261 58.8292736,94.2151594 59.7527448,93.4834203 C60.6762161,92.750087 61.1379517,91.681971 61.1379517,90.2806667 C61.1379517,88.8682029 60.751308,87.8224058 59.9780207,87.148058 C59.2047333,86.4737101 57.9904805,86.1357391 56.3400552,86.1357391 L53.5904115,86.1357391 L53.5904115,94.5818261 Z M67.2427678,90.0670435 C67.2427678,93.1295072 66.2841471,95.4713913 64.365308,97.0926957 C62.4480667,98.714 59.7207908,99.5254493 56.1850782,99.5254493 L53.5904115,99.5254493 L53.5904115,109.643855 L47.5447103,109.643855 L47.5447103,81.1937101 L56.6532046,81.1937101 C60.1106299,81.1937101 62.740446,81.9350145 64.5410552,83.4208116 C66.3416644,84.9066087 67.2427678,87.1225507 67.2427678,90.0670435 L67.2427678,90.0670435 Z" id="Fill-5"></path>
                    <polygon id="Fill-7" points="93.8504034 109.644174 87.8047023 109.644174 87.8047023 86.2141739 80.0622425 86.2141739 80.0622425 81.1924348 101.592863 81.1924348 101.592863 86.2141739 93.8504034 86.2141739"></polygon>
                    <path d="M122.253216,93.8228261 L124.204009,93.8228261 C126.11486,93.8228261 127.52563,93.5055797 128.43632,92.8694928 C129.345411,92.2334058 129.800756,91.2338406 129.800756,89.8723913 C129.800756,88.5236957 129.335825,87.5639855 128.407561,86.9916667 C127.477699,86.420942 126.036572,86.1355797 124.085779,86.1355797 L122.253216,86.1355797 L122.253216,93.8228261 Z M122.253216,98.7265942 L122.253216,109.643696 L116.207515,109.643696 L116.207515,81.1935507 L124.515561,81.1935507 C128.389986,81.1935507 131.256262,81.8965942 133.115986,83.3042754 C134.97571,84.7119565 135.905572,86.8497826 135.905572,89.7161594 C135.905572,91.3900725 135.443837,92.879058 134.520366,94.1831159 C133.596894,95.4855797 132.289975,96.509058 130.601205,97.2471739 C134.891032,103.64471 137.687009,107.77529 138.987538,109.643696 L132.277193,109.643696 L125.470986,98.7265942 L122.253216,98.7265942 Z" id="Fill-9"></path>
                </g>
            </g>
        </g>
    </g>
</svg>